<?xml version="1.0" standalone="no"?>
<!DOCTYPE svg PUBLIC "-//W3C//DTD SVG 20010904//EN"
 "http://www.w3.org/TR/2001/REC-SVG-20010904/DTD/svg10.dtd">
<svg version="1.0" xmlns="http://www.w3.org/2000/svg"
 width="130.000000pt" height="98.000000pt" viewBox="0 0 1307.000000 980.000000"
 preserveAspectRatio="xMidYMid meet">

<g transform="translate(0.000000,980.000000) scale(0.100000,-0.100000)"
fill="#009985" stroke="none">
<path d="M6345 6503 c-774 -38 -1288 -141 -2207 -442 -185 -61 -400 -126 -479
-146 -329 -83 -600 -111 -931 -95 -120 5 -517 6 -968 2 -740 -7 -766 -8 -799
-27 -89 -53 -96 -197 -12 -267 57 -49 77 -50 941 -45 961 5 878 -3 1560 152
648 147 907 181 1298 172 192 -4 246 -9 348 -31 213 -45 369 -108 524 -210 52
-35 105 -68 116 -74 24 -13 1505 -19 1525 -7 5 4 9 10 7 14 -4 9 -139 126
-531 460 -236 200 -297 258 -295 274 3 20 8 21 188 21 182 0 186 0 237 -27 29
-15 124 -89 210 -164 87 -75 203 -175 258 -222 55 -47 155 -134 222 -193 115
-101 180 -144 248 -164 17 -5 309 -9 650 -9 718 -1 858 -11 1285 -86 737 -130
1491 -475 1940 -888 l65 -60 -200 -3 c-341 -4 -323 -9 -540 132 -194 125 -259
162 -432 249 -386 193 -763 302 -1183 342 -91 9 -595 13 -1830 14 -1274 2
-1721 5 -1768 14 -143 27 -242 68 -410 169 -236 143 -454 188 -872 179 -441
-9 -686 -49 -1474 -242 -188 -45 -390 -94 -451 -109 -137 -32 -159 -47 -163
-110 -6 -88 68 -314 155 -476 110 -204 234 -363 515 -659 59 -63 108 -118 108
-122 0 -4 -8 -11 -17 -15 -10 -4 -291 -11 -625 -14 -596 -5 -607 -5 -635 -26
-39 -29 -53 -60 -53 -124 0 -65 24 -111 72 -137 30 -16 76 -18 538 -23 495 -5
506 -5 553 -27 27 -12 69 -41 95 -64 81 -72 139 -92 275 -97 96 -4 117 -2 117
10 0 7 -15 46 -34 85 -218 454 -168 847 145 1137 306 283 758 297 1092 32 283
-225 401 -617 290 -971 -26 -81 -80 -197 -114 -247 -11 -14 -19 -30 -19 -35 0
-4 797 -8 1771 -8 1569 0 1770 2 1765 15 -2 8 -23 65 -46 125 -70 182 -92 280
-97 441 -4 112 -2 159 12 220 62 281 289 521 580 614 97 31 291 39 401 16 161
-32 294 -101 417 -216 122 -114 195 -239 243 -415 69 -253 25 -523 -122 -757
-13 -21 -24 -40 -24 -43 0 -9 733 -5 875 5 419 31 666 88 934 216 166 79 271
153 386 269 158 160 210 267 203 412 -4 69 -10 93 -41 155 -80 160 -284 350
-607 564 -489 326 -1062 525 -1720 599 -80 9 -266 20 -415 24 -156 4 -281 12
-297 19 -14 6 -228 163 -475 348 -246 186 -479 357 -516 382 -91 58 -215 116
-305 141 -82 23 -384 55 -656 71 -159 9 -644 11 -801 3z m1379 -278 c76 -20
151 -60 308 -165 125 -83 696 -528 697 -542 1 -13 -398 -10 -420 3 -50 26
-859 711 -853 721 9 15 190 3 268 -17z m-3232 -1181 c738 -123 1261 -276 2263
-662 741 -286 981 -382 1010 -405 24 -19 36 -40 45 -79 7 -29 26 -96 41 -148
33 -108 33 -110 18 -110 -8 0 -569 213 -854 325 -33 13 -154 60 -270 105 -209
81 -272 106 -775 304 -812 319 -1710 682 -1724 696 -16 16 17 13 246 -26z
m7352 -890 c9 -3 16 -14 16 -24 0 -28 -92 -149 -179 -235 l-81 -80 -123 -5
c-214 -9 -341 11 -366 58 -9 17 1 33 70 116 92 110 133 146 186 163 40 12 448
18 477 7z"/>
<path d="M1605 4491 c-326 -6 -352 -7 -384 -26 -56 -33 -76 -68 -76 -134 1
-64 23 -111 68 -145 28 -21 37 -21 618 -24 324 -2 589 0 589 5 0 4 -23 46 -51
93 -28 46 -64 110 -80 142 -16 32 -41 66 -56 75 -32 21 -97 23 -628 14z"/>
<path d="M4065 4356 c-162 -51 -279 -176 -331 -351 -26 -87 -24 -239 4 -330
26 -85 82 -174 148 -236 174 -161 460 -153 632 20 103 103 152 228 152 391 0
52 -7 119 -16 154 -42 164 -160 294 -312 345 -71 24 -212 28 -277 7z"/>
<path d="M8979 4356 c-163 -47 -282 -178 -329 -362 -52 -202 -2 -404 134 -539
247 -247 651 -141 771 201 92 263 -20 559 -254 671 -69 33 -84 37 -176 39 -62
2 -117 -2 -146 -10z"/>
</g>
</svg>
