<?xml version="1.0" standalone="no"?>
<!DOCTYPE svg PUBLIC "-//W3C//DTD SVG 20010904//EN"
 "http://www.w3.org/TR/2001/REC-SVG-20010904/DTD/svg10.dtd">
<svg version="1.0" xmlns="http://www.w3.org/2000/svg"
 width="150.000000pt" height="370.000000pt" viewBox="0 0 213.000000 512.000000"
 preserveAspectRatio="xMidYMid meet">

<g transform="translate(0.000000,512.000000) scale(0.100000,-0.100000)"
fill="#FFFFFF" stroke="none">
<path d="M665 4950 c-55 -5 -120 -16 -145 -25 -144 -51 -243 -167 -270 -316
-36 -200 -70 -686 -70 -1002 l0 -228 -47 -27 c-110 -64 -150 -138 -73 -136 19
0 54 4 77 9 l42 7 4 -1308 c2 -1177 4 -1323 20 -1444 23 -177 39 -232 84 -281
88 -97 196 -113 773 -113 572 0 687 16 770 110 48 55 59 91 83 258 20 146 21
193 24 1464 4 1230 5 1312 21 1312 9 0 40 -6 69 -14 37 -10 54 -11 62 -3 31
31 -5 82 -88 128 l-58 32 -6 331 c-8 404 -47 868 -83 970 -49 139 -168 239
-316 267 -70 13 -745 20 -873 9z m634 -149 c27 -27 53 -79 46 -91 -8 -13 -562
-13 -570 0 -8 13 31 87 52 99 11 6 106 11 236 11 202 0 218 -1 236 -19z m-575
-9 c9 -15 -63 -111 -87 -117 -12 -3 -53 -10 -92 -15 -73 -12 -136 -35 -184
-70 -45 -32 -55 -25 -29 21 46 82 154 160 249 178 59 12 137 13 143 3z m801
-3 c109 -20 215 -91 263 -178 26 -46 16 -52 -29 -21 -48 35 -111 58 -184 70
-39 5 -80 12 -92 15 -21 5 -93 93 -93 114 0 14 59 14 135 0z m-186 -1115 c120
-17 220 -41 336 -80 113 -38 135 -52 135 -89 -1 -31 -173 -712 -184 -722 -3
-3 -63 8 -133 25 -188 46 -281 55 -493 49 -184 -6 -272 -18 -432 -62 -37 -11
-70 -16 -74 -12 -10 9 -184 688 -184 717 0 14 4 31 8 37 20 32 281 111 452
137 132 20 435 20 569 0z m-900 -989 c38 -167 53 -301 49 -444 l-3 -114 -85 2
c-46 1 -88 5 -92 7 -4 3 -8 251 -7 552 l1 547 54 -210 c30 -115 67 -268 83
-340z m1376 -542 c-3 -9 -32 -13 -96 -13 l-92 0 6 173 c6 210 17 274 110 640
l72 287 3 -537 c1 -296 0 -544 -3 -550z m-1327 -430 l-3 -278 -29 -60 c-27
-54 -126 -165 -148 -165 -4 0 -8 173 -8 384 l0 385 38 4 c20 2 63 4 95 5 l58
2 -3 -277z m1280 271 l52 -7 0 -383 c0 -211 -4 -384 -8 -384 -22 0 -121 111
-148 165 l-29 60 -3 278 -3 277 43 0 c24 0 67 -3 96 -6z m-1073 -849 c154 -26
350 -36 512 -25 139 10 325 40 379 61 14 5 32 6 39 1 17 -9 185 -236 185 -250
0 -15 -61 -36 -200 -71 -179 -44 -331 -61 -550 -61 -258 0 -426 22 -647 86
-89 26 -113 43 -95 68 5 6 42 56 82 111 40 55 79 105 87 111 10 9 27 9 66 -2
29 -7 92 -20 142 -29z"/>
</g>
</svg>
