<?xml version="1.0" standalone="no"?>
<!DOCTYPE svg PUBLIC "-//W3C//DTD SVG 20010904//EN"
 "http://www.w3.org/TR/2001/REC-SVG-20010904/DTD/svg10.dtd">
<svg version="1.0" xmlns="http://www.w3.org/2000/svg"
 width="200.000000pt" height="200.000000pt" viewBox="0 0 200.000000 200.000000"
 preserveAspectRatio="xMidYMid meet">

<g transform="translate(0.000000,200.000000) scale(0.100000,-0.100000)"
fill="#FFFFFF" stroke="none">
<path d="M589 1907 c-156 -54 -249 -189 -249 -360 0 -223 135 -410 347 -482
38 -12 89 -25 116 -29 60 -9 63 -32 7 -71 -62 -43 -108 -43 -260 0 -111 32
-142 37 -196 32 -138 -11 -261 -131 -280 -274 -8 -65 16 -150 62 -220 159
-243 569 -206 744 67 34 54 74 162 84 233 6 42 10 48 29 45 14 -2 31 -21 50
-58 35 -67 33 -107 -14 -256 -51 -165 -34 -267 63 -364 113 -114 265 -127 405
-34 244 159 206 569 -68 745 -55 35 -160 73 -231 83 -62 9 -64 32 -6 72 36 25
50 29 107 28 43 -1 100 -12 165 -33 124 -39 199 -41 273 -7 95 45 173 147 188
247 9 63 -17 160 -60 226 -161 243 -570 206 -746 -68 -35 -55 -73 -160 -83
-231 -9 -62 -35 -65 -72 -8 -42 63 -42 114 1 260 47 160 46 229 -6 316 -82
136 -228 191 -370 141z m202 -68 c59 -29 96 -66 123 -121 34 -68 33 -113 -5
-234 -17 -55 -33 -130 -36 -169 -4 -63 -2 -76 24 -127 l29 -57 -29 -22 c-29
-21 -31 -21 -108 -6 -143 28 -263 107 -327 216 -33 57 -62 162 -62 226 0 221
216 383 391 294z m902 -273 c213 -104 228 -379 25 -480 -68 -34 -113 -33 -234
5 -163 50 -252 49 -325 -2 -26 -18 -26 -18 -49 13 -22 31 -23 31 -7 111 48
243 228 393 458 384 59 -3 90 -10 132 -31z m-635 -512 c29 -32 28 -76 -1 -110
-33 -37 -81 -37 -114 0 -38 45 -28 102 25 130 33 18 60 12 90 -20z m-538 -145
c52 -16 127 -33 165 -36 63 -4 75 -2 127 24 l58 30 20 -22 c24 -25 24 -38 5
-128 -29 -139 -122 -270 -233 -326 -156 -80 -349 -58 -447 51 -126 139 -94
332 67 412 68 34 120 33 238 -5z m709 -14 c144 -34 263 -122 321 -237 125
-251 -4 -518 -249 -518 -122 0 -241 118 -241 238 0 22 14 84 31 138 17 55 33
131 36 169 4 63 2 75 -24 127 l-30 57 21 20 c26 24 53 25 135 6z"/>
</g>
</svg>
