<?xml version="1.0" standalone="no"?>
<!DOCTYPE svg PUBLIC "-//W3C//DTD SVG 20010904//EN"
 "http://www.w3.org/TR/2001/REC-SVG-20010904/DTD/svg10.dtd">
<svg version="1.0" xmlns="http://www.w3.org/2000/svg"
 width="490.000000pt" height="490.000000pt" viewBox="0 0 490.000000 490.000000"
 preserveAspectRatio="xMidYMid meet">

<g transform="translate(0.000000,490.000000) scale(0.100000,-0.100000)"
fill="#FFFFFF" stroke="none">
<path d="M2185 4280 c-158 -33 -277 -127 -348 -276 l-32 -69 -3 -494 -3 -493
-32 6 c-18 3 -75 9 -128 12 -149 10 -220 -23 -268 -125 l-26 -56 -5 -630 c-3
-346 -9 -638 -13 -647 -15 -30 -74 -59 -131 -65 -95 -10 -183 47 -214 136 -9
25 -12 220 -12 713 l0 679 21 -6 c33 -11 84 -8 109 5 12 6 31 33 43 58 32 71
28 232 -11 417 -17 77 -33 147 -37 156 -5 13 10 23 69 48 42 17 89 34 106 38
17 3 33 9 36 14 4 7 -20 62 -44 97 -17 26 -258 -78 -379 -164 -47 -34 -68 -57
-88 -98 -51 -104 -43 -258 23 -445 l26 -76 6 -725 c5 -716 5 -726 27 -772 29
-63 97 -134 158 -165 134 -69 323 -23 397 95 l23 37 5 640 c4 519 8 645 19
667 19 37 68 58 133 58 47 0 75 -5 166 -25 l22 -5 0 -850 0 -850 1018 2 1017
3 3 1365 c1 952 -1 1381 -9 1418 -26 130 -131 267 -248 327 -105 53 -135 55
-771 54 -322 -1 -603 -5 -625 -9z m1210 -419 c51 -23 101 -79 114 -128 14 -49
14 -486 1 -534 -15 -55 -51 -101 -97 -127 l-42 -23 -550 1 c-303 0 -561 4
-574 9 -38 15 -86 61 -107 102 -18 35 -20 60 -20 300 0 247 1 265 21 306 22
46 65 84 114 101 19 7 219 11 565 11 497 1 538 -1 575 -18z m-2384 -418 c16
-74 23 -142 24 -215 0 -132 -7 -143 -69 -109 -38 19 -46 29 -55 68 -7 25 -10
47 -7 50 2 2 19 -3 36 -12 27 -14 34 -15 41 -3 15 24 10 40 -47 129 l-55 88
16 33 c13 29 68 78 86 78 4 0 17 -48 30 -107z m2458 -908 c40 -34 56 -84 41
-130 -43 -131 -240 -103 -240 35 0 70 51 120 122 120 35 0 54 -6 77 -25z m-20
-343 c126 -64 56 -254 -84 -228 -85 16 -124 129 -68 196 44 52 93 63 152 32z
m20 -367 c40 -34 56 -84 41 -130 -34 -102 -177 -117 -226 -24 -29 58 -9 135
44 163 44 24 106 20 141 -9z"/>
<path d="M1500 835 l0 -225 1320 0 1320 0 0 225 0 225 -1320 0 -1320 0 0 -225z"/>
</g>
</svg>
