<?xml version="1.0" standalone="no"?>
<!DOCTYPE svg PUBLIC "-//W3C//DTD SVG 20010904//EN"
 "http://www.w3.org/TR/2001/REC-SVG-20010904/DTD/svg10.dtd">
<svg version="1.0" xmlns="http://www.w3.org/2000/svg"
 width="200.000000pt" height="200.000000pt" viewBox="0 0 200.000000 200.000000"
 preserveAspectRatio="xMidYMid meet">

<g transform="translate(0.000000,200.000000) scale(0.100000,-0.100000)"
fill="#FFFFFF" stroke="none">
<path d="M923 1758 c-38 -78 -128 -225 -244 -398 -239 -356 -286 -452 -296
-600 -11 -168 52 -326 182 -455 92 -92 166 -133 297 -167 207 -52 441 20 591
182 164 176 208 406 121 622 -38 92 -90 178 -244 403 -157 229 -229 348 -276
455 -48 110 -57 107 -131 -42z m122 -76 c21 -42 122 -201 224 -352 265 -396
310 -502 283 -676 -58 -372 -458 -579 -798 -414 -220 106 -355 368 -303 588
15 65 97 231 161 327 30 44 110 163 179 265 68 102 142 220 164 262 22 43 42
78 45 78 3 0 23 -35 45 -78z"/>
<path d="M1177 1017 c-12 -10 -361 -463 -380 -495 -11 -16 3 -42 23 -42 22 0
400 490 400 519 0 24 -23 34 -43 18z"/>
<path d="M775 991 c-60 -41 -80 -112 -48 -178 22 -47 66 -73 125 -73 121 0
177 150 88 235 -40 38 -120 46 -165 16z m110 -47 c24 -10 46 -60 39 -89 -14
-57 -97 -75 -133 -29 -28 35 -26 69 4 99 24 24 57 31 90 19z"/>
<path d="M1095 721 c-102 -46 -110 -175 -16 -238 44 -30 98 -30 142 0 96 64
84 199 -21 241 -50 20 -56 20 -105 -3z m113 -78 c43 -47 6 -123 -59 -123 -57
0 -95 69 -65 116 33 49 83 52 124 7z"/>
</g>
</svg>
