<?xml version="1.0" standalone="no"?>
<!DOCTYPE svg PUBLIC "-//W3C//DTD SVG 20010904//EN"
 "http://www.w3.org/TR/2001/REC-SVG-20010904/DTD/svg10.dtd">
<svg version="1.0" xmlns="http://www.w3.org/2000/svg"
 width="512.000000pt" height="512.000000pt" viewBox="0 0 512.000000 512.000000"
 preserveAspectRatio="xMidYMid meet">

<g transform="translate(0.000000,512.000000) scale(0.100000,-0.100000)"
fill="#FFFFFF" stroke="none">
<path d="M865 4742 c-65 -23 -110 -55 -146 -105 -49 -67 -59 -121 -59 -308 l0
-168 -217 -3 c-197 -3 -222 -5 -264 -24 -66 -31 -114 -78 -146 -142 -26 -53
-28 -66 -31 -209 -3 -116 0 -164 12 -206 31 -108 116 -186 228 -209 l58 -12 0
-1096 0 -1096 -58 -12 c-112 -23 -197 -101 -228 -209 -24 -83 -16 -341 12
-404 31 -66 78 -114 142 -146 l57 -28 950 -3 c704 -2 957 1 978 9 49 20 69 81
45 134 -26 57 13 55 -993 55 -1006 0 -967 -2 -993 55 -16 35 -16 255 0 290 27
59 -134 55 2348 55 2482 0 2321 4 2348 -55 7 -15 12 -74 12 -146 0 -132 -10
-167 -55 -187 -19 -9 -255 -12 -951 -12 -1005 0 -966 2 -992 -55 -24 -53 -4
-114 45 -134 21 -8 274 -11 978 -9 l950 3 57 28 c64 32 111 80 142 146 28 63
36 321 12 404 -31 108 -116 186 -228 209 l-58 12 0 1096 0 1096 58 12 c112 23
197 101 228 209 12 42 15 90 12 206 -3 143 -5 156 -31 209 -32 64 -80 111
-146 142 -41 19 -67 21 -263 24 l-216 3 -4 187 c-3 165 -6 192 -24 233 -31 66
-78 114 -142 146 l-57 28 -275 0 -275 0 -57 -28 c-64 -32 -111 -80 -142 -146
-19 -41 -21 -68 -24 -233 l-4 -188 -898 0 -898 0 -4 188 c-3 181 -4 189 -31
244 -32 64 -80 111 -146 142 -43 19 -66 21 -306 23 -227 3 -266 1 -310 -15z
m544 -196 c44 -23 51 -52 51 -226 l0 -160 -300 0 -300 0 0 163 c1 173 6 198
51 223 36 20 459 20 498 0z m2800 0 c44 -23 51 -52 51 -226 l0 -160 -300 0
-300 0 0 163 c1 173 6 198 51 223 36 20 459 20 498 0z m656 -598 c45 -20 55
-55 55 -188 0 -133 -10 -168 -55 -188 -20 -9 -560 -12 -2306 -12 -2481 0
-2320 -4 -2347 55 -17 37 -15 263 2 294 30 53 -111 50 2343 51 1749 0 2288 -3
2308 -12z m-245 -1688 l0 -1100 -2060 0 -2060 0 0 1100 0 1100 2060 0 2060 0
0 -1100z"/>
<path d="M2512 3147 c-12 -7 -129 -161 -259 -343 -277 -387 -293 -411 -293
-440 0 -58 18 -73 205 -166 99 -50 181 -91 183 -93 2 -2 -18 -150 -44 -329
-40 -281 -45 -331 -34 -357 21 -50 88 -73 137 -46 20 11 614 794 642 844 14
28 14 55 -1 89 -9 20 -54 47 -200 120 l-188 94 0 280 c0 195 -4 287 -12 305
-22 48 -88 68 -136 42z m-38 -740 c5 -10 80 -54 168 -98 113 -57 158 -84 154
-94 -9 -23 -269 -366 -274 -361 -2 3 6 75 18 161 19 130 20 160 10 186 -11 26
-38 43 -177 113 l-165 82 124 172 123 173 5 -158 c3 -87 9 -166 14 -176z"/>
<path d="M1311 2646 c-42 -23 -50 -53 -51 -173 l0 -113 -110 0 c-121 0 -154
-10 -176 -51 -18 -35 -18 -63 0 -98 22 -41 55 -51 176 -51 l110 0 0 -110 c0
-123 11 -158 55 -178 33 -15 57 -15 90 0 44 20 55 55 55 178 l0 110 110 0
c121 0 154 10 176 51 27 52 8 115 -41 137 -15 7 -72 12 -135 12 l-110 0 0 110
c0 63 -5 120 -12 135 -22 48 -88 68 -137 41z"/>
<path d="M3411 2346 c-47 -26 -63 -84 -37 -135 26 -49 42 -51 387 -51 347 0
363 2 387 55 23 51 7 107 -39 131 -39 20 -662 20 -698 0z"/>
<path d="M2511 546 c-87 -48 -50 -186 49 -186 51 0 100 49 100 99 0 75 -83
124 -149 87z"/>
</g>
</svg>
