<?xml version="1.0" standalone="no"?>
<!DOCTYPE svg PUBLIC "-//W3C//DTD SVG 20010904//EN"
 "http://www.w3.org/TR/2001/REC-SVG-20010904/DTD/svg10.dtd">
<svg version="1.0" xmlns="http://www.w3.org/2000/svg"
 width="120.000000pt" height="200.000000pt" viewBox="0 0 512.000000 512.000000"
 preserveAspectRatio="xMidYMid meet">

<g transform="translate(0.000000,512.000000) scale(0.100000,-0.100000)"
fill="#FFFFFF" stroke="none">
<path d="M1875 5103 c-4 -10 -99 -270 -211 -578 -112 -308 -207 -567 -210
-575 -3 -9 -169 150 -497 478 l-492 492 -73 -73 c-39 -40 -72 -77 -72 -82 0
-6 235 -245 523 -533 l522 -522 -37 -103 c-20 -56 -151 -416 -291 -799 l-254
-698 563 0 c310 0 564 -2 564 -4 0 -5 -615 -2023 -631 -2071 l-10 -30 38 37
c21 21 438 458 928 972 l890 934 767 -766 768 -767 77 78 78 77 -768 768 -769
769 636 666 c350 367 636 669 636 672 0 3 -324 5 -720 5 -396 0 -720 4 -720 8
0 5 9 35 21 68 11 32 137 404 279 827 l259 767 -893 0 c-842 0 -894 -1 -901
-17z m1208 -1020 c-151 -450 -278 -828 -280 -840 l-5 -23 614 -2 615 -3 -429
-450 c-236 -247 -440 -461 -453 -475 l-25 -25 -745 745 c-410 410 -745 752
-745 760 0 12 395 1104 407 1123 2 4 301 7 663 7 l659 0 -276 -817z m-206
-2074 c-238 -253 -1112 -1167 -1114 -1165 -1 1 99 334 222 740 124 406 225
740 225 742 0 2 -250 4 -556 4 -526 0 -556 1 -549 18 3 9 101 276 217 592 115
316 212 579 215 583 3 5 326 -311 719 -704 l712 -712 -91 -98z"/>
</g>
</svg>
