<?xml version="1.0" standalone="no"?>
<!DOCTYPE svg PUBLIC "-//W3C//DTD SVG 20010904//EN"
 "http://www.w3.org/TR/2001/REC-SVG-20010904/DTD/svg10.dtd">
<svg version="1.0" xmlns="http://www.w3.org/2000/svg"
 width="512.000000pt" height="512.000000pt" viewBox="0 0 512.000000 512.000000"
 preserveAspectRatio="xMidYMid meet">

<g transform="translate(0.000000,512.000000) scale(0.100000,-0.100000)"
fill="#FFFFFF" stroke="none">
<path d="M2380 4504 c-657 -44 -1219 -244 -1665 -592 -110 -86 -333 -317 -407
-422 -133 -187 -241 -439 -285 -665 -24 -125 -24 -405 0 -530 44 -226 152
-478 285 -665 74 -105 297 -336 407 -422 405 -316 913 -512 1500 -579 151 -18
576 -18 689 0 119 18 207 62 280 142 66 71 91 116 111 201 22 95 22 3081 0
3176 -20 85 -45 130 -109 200 -69 74 -153 119 -254 138 -75 14 -440 26 -552
18z m30 -1944 l0 -1650 -22 4 c-13 3 -61 8 -108 11 -650 47 -1318 367 -1659
795 -161 201 -250 381 -297 600 -25 118 -25 362 0 480 101 467 447 863 987
1128 308 151 616 235 994 271 50 4 93 9 98 10 4 0 7 -742 7 -1649z m430 1635
c77 -6 129 -36 153 -88 16 -32 17 -160 17 -1547 0 -1387 -1 -1515 -17 -1547
-24 -52 -76 -82 -153 -88 -36 -3 -80 -8 -97 -10 l-33 -4 0 1649 0 1649 33 -4
c17 -2 61 -7 97 -10z"/>
<path d="M4325 4356 c-335 -84 -625 -160 -642 -169 -38 -20 -73 -82 -73 -127
0 -73 74 -150 143 -150 40 0 1239 299 1284 320 47 22 83 78 83 130 0 78 -76
151 -152 149 -18 -1 -307 -70 -643 -153z"/>
<path d="M4325 3456 c-335 -84 -625 -160 -642 -169 -38 -20 -73 -82 -73 -127
0 -73 74 -150 143 -150 40 0 1239 299 1284 320 47 22 83 78 83 130 0 78 -76
151 -152 149 -18 -1 -307 -70 -643 -153z"/>
<path d="M4325 2556 c-335 -84 -625 -160 -642 -169 -38 -20 -73 -82 -73 -127
0 -73 74 -150 143 -150 40 0 1239 299 1284 320 47 22 83 78 83 130 0 78 -76
151 -152 149 -18 -1 -307 -70 -643 -153z"/>
<path d="M4325 1656 c-335 -84 -625 -160 -642 -169 -38 -20 -73 -82 -73 -127
0 -73 74 -150 143 -150 40 0 1239 299 1284 320 47 22 83 78 83 130 0 78 -76
151 -152 149 -18 -1 -307 -70 -643 -153z"/>
</g>
</svg>
