<?xml version="1.0" standalone="no"?>
<!DOCTYPE svg PUBLIC "-//W3C//DTD SVG 20010904//EN"
 "http://www.w3.org/TR/2001/REC-SVG-20010904/DTD/svg10.dtd">
<svg version="1.0" xmlns="http://www.w3.org/2000/svg"
 width="512.000000pt" height="512.000000pt" viewBox="0 0 512.000000 512.000000"
 preserveAspectRatio="xMidYMid meet">

<g transform="translate(0.000000,512.000000) scale(0.100000,-0.100000)"
fill="#FFFFFF" stroke="none">
<path d="M2390 5109 c-651 -73 -1189 -582 -1300 -1234 -18 -106 -20 -162 -20
-615 l0 -498 -45 -26 c-93 -55 -145 -128 -164 -231 -14 -76 -15 -1949 -1
-2050 27 -191 177 -365 370 -431 53 -18 111 -19 1330 -19 1219 0 1277 1 1330
19 193 66 343 240 370 431 14 101 13 1974 -1 2050 -6 33 -19 75 -29 95 -26 51
-93 115 -148 142 l-47 23 -1163 3 -1163 2 4 508 c4 570 1 551 82 719 106 218
293 377 530 449 80 24 106 27 235 27 129 0 155 -3 235 -27 237 -72 424 -231
530 -449 76 -159 77 -167 84 -572 4 -261 9 -366 19 -382 29 -51 38 -53 308
-53 l252 0 31 31 31 31 0 353 c0 308 -3 368 -20 470 -133 780 -854 1322 -1640
1234z m395 -225 c486 -79 905 -474 1018 -959 30 -126 37 -222 37 -476 l0 -249
-105 0 -105 0 0 208 c0 363 -25 506 -120 697 -178 358 -547 585 -950 585 -551
0 -1008 -417 -1060 -968 -5 -59 -10 -297 -10 -529 l0 -423 -105 0 -105 0 0
464 c0 461 5 555 37 691 70 303 268 587 528 760 287 191 592 255 940 199z
m1236 -2362 l29 -33 -2 -1022 -3 -1022 -23 -47 c-27 -55 -91 -122 -142 -148
-76 -39 -120 -40 -1320 -40 -1200 0 -1244 1 -1320 40 -51 26 -115 93 -142 148
l-23 47 -3 1021 -2 1021 21 27 c12 15 31 32 43 36 11 5 659 8 1439 7 l1419 -2
29 -33z"/>
<path d="M2445 2117 c-105 -35 -201 -110 -251 -194 -89 -153 -72 -350 42 -490
l36 -43 -72 -214 c-48 -146 -69 -222 -65 -239 4 -14 20 -38 36 -53 l30 -29
353 0 c391 0 392 0 422 64 l17 36 -72 217 -72 218 35 43 c114 140 131 337 42
490 -38 65 -117 134 -194 170 -57 27 -80 32 -157 34 -55 2 -105 -2 -130 -10z
m178 -208 c81 -22 146 -111 147 -200 0 -67 -21 -107 -89 -176 -51 -50 -61 -66
-61 -95 0 -18 25 -108 55 -198 30 -90 55 -166 55 -167 0 -2 -76 -3 -170 -3
-93 0 -170 1 -170 3 0 1 25 77 55 167 30 90 55 180 55 198 0 29 -10 45 -61 95
-68 69 -89 109 -89 176 1 142 133 239 273 200z"/>
</g>
</svg>
