<?xml version="1.0" standalone="no"?>
<!DOCTYPE svg PUBLIC "-//W3C//DTD SVG 20010904//EN"
 "http://www.w3.org/TR/2001/REC-SVG-20010904/DTD/svg10.dtd">
<svg version="1.0" xmlns="http://www.w3.org/2000/svg"
 width="512.000000pt" height="512.000000pt" viewBox="0 0 512.000000 512.000000"
 preserveAspectRatio="xMidYMid meet">

<g transform="translate(0.000000,512.000000) scale(0.100000,-0.100000)"
fill="#FFFFFF" stroke="none">
<path d="M4543 5109 c-245 -25 -499 -128 -688 -280 -38 -31 -133 -120 -210
-198 l-140 -141 185 -185 185 -185 155 154 c85 85 184 172 219 195 87 56 208
100 305 112 44 6 111 14 149 19 84 10 146 45 187 105 117 170 8 392 -200 409
-30 2 -96 0 -147 -5z"/>
<path d="M445 5016 c-27 -7 -65 -20 -84 -30 -53 -28 -120 -102 -149 -164 l-27
-57 -3 -2180 c-2 -1531 1 -2196 8 -2232 18 -83 64 -164 130 -227 67 -64 140
-101 232 -116 88 -14 2960 -14 3048 1 179 29 326 172 360 349 6 34 10 550 10
1440 0 1358 0 1388 -20 1466 -25 97 -65 165 -154 261 l-69 74 95 97 c81 82 98
105 112 151 20 68 20 94 0 162 -15 50 -32 70 -242 282 -254 255 -277 271 -382
271 -87 0 -133 -25 -242 -131 l-86 -85 -73 51 c-115 81 -166 93 -411 99 l-206
4 -4 136 c-3 134 -4 139 -37 200 -41 75 -94 125 -170 161 l-56 26 -765 2
c-584 1 -777 -1 -815 -11z m1457 -347 c41 -22 48 -65 48 -299 0 -234 -7 -277
-48 -299 -14 -8 -225 -11 -672 -11 l-651 0 -24 25 -25 24 0 261 0 261 25 24
24 25 651 0 c447 0 658 -3 672 -11z m-1053 -985 c44 -37 44 -91 0 -128 -29
-25 -36 -26 -146 -26 -113 0 -115 0 -144 29 -33 33 -38 74 -13 109 24 35 48
41 166 41 100 1 108 0 137 -25z m1840 11 c16 -8 34 -28 41 -45 11 -27 11 -37
-3 -66 -9 -19 -28 -39 -43 -44 -16 -6 -318 -10 -795 -10 l-771 0 -29 29 c-45
46 -33 118 25 141 11 5 364 9 784 9 649 1 767 -1 791 -14z m517 -542 c56 -30
103 -79 128 -133 21 -45 21 -51 21 -1125 l0 -1080 -22 -41 c-35 -65 -69 -100
-125 -128 l-52 -26 -1080 0 -1081 0 -51 24 c-28 13 -67 43 -87 67 -71 82 -68
26 -65 1210 l3 1064 31 55 c32 58 98 112 158 129 18 6 478 9 1106 8 l1075 -2
41 -22z"/>
<path d="M2020 2813 c-45 -23 -88 -82 -202 -273 -164 -273 -338 -645 -384
-820 -79 -295 119 -624 436 -722 63 -19 96 -23 210 -23 124 1 142 3 220 31
163 58 293 170 368 320 94 186 87 332 -30 609 -135 321 -412 814 -488 867 -39
27 -90 31 -130 11z"/>
</g>
</svg>
