<svg version="1.1" id="Layer_1" xmlns="http://www.w3.org/2000/svg" xmlns:xlink="http://www.w3.org/1999/xlink" x="0px" y="0px"
	 width="100%" viewBox="0 0 976 976" enable-background="new 0 0 976 976" xml:space="preserve">
<path fill="#FFFFFF" opacity="1.000000" stroke="none" 
	d="
M872.611572,588.999878 
	C872.610962,559.334167 872.857483,530.165588 872.521057,501.003784 
	C872.303345,482.134613 870.412109,463.438904 862.958008,445.734558 
	C851.159729,417.712097 832.511230,395.920135 805.454041,381.557892 
	C800.237183,378.788666 794.839600,378.066254 789.076965,378.067200 
	C637.915222,378.091980 486.753510,378.054413 335.591797,378.042908 
	C288.093536,378.039307 240.595123,378.138367 193.097137,378.030792 
	C186.730728,378.016388 180.954483,379.296417 175.410675,382.371368 
	C138.242432,402.986908 118.485054,435.318207 112.163063,476.567719 
	C110.160629,489.633118 111.357056,502.861084 111.322472,516.008606 
	C111.179588,570.339783 111.384758,624.672119 111.156876,679.002808 
	C111.112808,689.509155 114.303070,698.314941 121.540855,705.645508 
	C132.588730,716.834961 137.210175,729.687256 134.798599,745.630554 
	C133.523392,754.061279 134.899597,762.903748 135.197632,771.556274 
	C135.313263,774.912903 137.310318,776.701233 140.646408,776.871826 
	C142.807648,776.982361 144.976212,776.974487 147.141525,776.976074 
	C170.307449,776.992859 193.473389,777.022095 216.639282,777.000122 
	C224.964996,776.992249 226.029892,775.739380 225.905396,767.288574 
	C225.807220,760.624451 225.627670,753.941895 225.988312,747.294922 
	C226.639542,735.292725 236.818726,728.887756 246.894257,733.824768 
	C251.161026,735.915405 253.635223,739.434204 254.161133,743.938232 
	C254.912567,750.373962 255.547165,756.847900 254.726913,763.375977 
	C254.355972,766.328064 254.020889,769.485229 254.654892,772.329834 
	C258.275970,788.576660 240.287079,805.697449 225.578903,805.471130 
	C204.918045,805.153137 184.247864,805.327698 163.582687,805.455322 
	C154.429947,805.511841 145.302994,806.297729 136.125092,805.407776 
	C119.571266,803.802673 107.627724,791.436096 106.569908,774.960266 
	C105.938606,765.127625 105.838013,755.362366 106.524055,745.524841 
	C107.085655,737.471802 105.250275,729.698975 99.057678,724.029541 
	C87.511124,713.458374 83.176102,700.075317 83.155724,684.999451 
	C83.065857,618.502747 82.955360,552.005493 83.147209,485.509308 
	C83.236649,454.510132 93.035561,426.654388 112.020012,402.075073 
	C117.315239,395.219269 122.517769,388.291656 127.731750,381.373566 
	C128.498169,380.356659 129.661087,379.507446 129.502640,377.272400 
	C120.605782,377.272400 111.675316,377.381378 102.748680,377.243042 
	C93.000725,377.091980 84.033524,374.423340 76.232544,368.345551 
	C57.328289,353.617035 55.336235,325.347565 71.953941,308.179230 
	C75.223007,304.801849 79.278030,302.918243 83.677429,301.864624 
	C104.990524,296.760223 126.545822,293.952850 148.514969,295.644531 
	C159.372162,296.480560 167.005371,304.431610 167.263840,315.336945 
	C167.457245,323.496735 167.360458,331.663330 167.417557,339.826721 
	C167.419571,340.116333 167.685349,340.404114 168.083603,341.208801 
	C171.579941,339.498505 172.455490,336.012115 173.764740,333.007751 
	C183.614151,310.405884 193.415344,287.781982 204.235138,265.621155 
	C211.478455,250.785538 219.302307,236.288330 229.181641,222.974747 
	C244.482224,202.355347 264.384674,191.085190 290.488892,189.597275 
	C319.221436,187.959534 347.842804,184.452942 376.543884,182.150330 
	C395.297455,180.645782 414.098053,179.652191 432.893250,178.760406 
	C455.349884,177.694901 477.821838,176.941589 500.289886,176.129852 
	C517.968384,175.491165 535.583496,176.916290 553.188599,178.157928 
	C571.951660,179.481232 590.690796,181.150742 609.435913,182.722137 
	C635.641479,184.918930 661.841919,187.176224 688.047058,189.377991 
	C692.194702,189.726456 696.359070,189.872437 700.509521,190.191559 
	C725.126221,192.084259 741.412476,207.006241 755.486267,225.381943 
	C770.520996,245.012527 779.951172,267.739075 790.847229,289.640594 
	C797.670288,303.355255 804.047974,317.291199 809.630920,331.576935 
	C810.711731,334.342346 812.192505,336.990112 815.356689,339.497437 
	C817.156372,334.357635 816.798645,329.530365 816.222778,324.727478 
	C815.684082,320.233856 815.408020,315.789368 816.487122,311.327118 
	C818.793823,301.789703 825.475281,295.807281 835.319092,295.785522 
	C855.498535,295.740906 875.608337,297.372009 895.463501,300.933777 
	C909.835571,303.511902 920.382019,317.336823 921.321960,332.670227 
	C922.507080,352.001526 910.335815,376.615967 880.439758,377.062378 
	C871.661926,377.193451 862.852722,377.188019 853.707092,378.461334 
	C854.432434,381.787476 856.642029,383.662659 858.423096,385.689972 
	C879.578491,409.769958 893.815186,437.174347 898.771606,469.084656 
	C900.231873,478.485901 900.849121,487.968994 900.857971,497.452118 
	C900.878418,519.279480 900.098328,541.116943 900.535400,562.932434 
	C901.249878,598.595886 900.723145,634.254639 900.943665,669.914307 
	C900.999390,678.918945 900.479126,687.883972 899.231018,696.804565 
	C898.480896,702.165833 896.740967,707.159241 893.629639,711.617004 
	C891.914185,714.074890 890.442749,716.843323 888.266968,718.816223 
	C876.633118,729.365601 876.578491,742.996338 877.769836,756.976501 
	C878.340149,763.668640 878.453918,770.441345 876.764832,776.857605 
	C871.864685,795.471497 864.579956,804.133423 842.706604,805.324341 
	C814.542175,806.857910 786.414062,804.886902 758.264587,805.068542 
	C742.560364,805.169922 730.453491,791.909912 729.872375,775.735291 
	C729.525513,766.081177 729.554260,756.398132 729.839111,746.740662 
	C730.194946,734.679138 740.834106,728.017212 750.419067,733.619873 
	C755.155334,736.388367 757.295532,740.704834 757.319275,746.107300 
	C757.355103,754.273499 757.518372,762.445129 757.270935,770.603699 
	C757.162048,774.194458 758.579102,775.904785 761.895325,776.334961 
	C764.035706,776.612549 766.198181,776.871216 768.351318,776.875488 
	C792.016907,776.922424 815.682556,776.940735 839.348206,776.914551 
	C847.469421,776.905579 848.821411,775.560303 848.873718,767.176025 
	C848.962219,753.010315 849.007812,738.842773 848.854065,724.678284 
	C848.812134,720.815369 850.097656,718.270203 853.165222,715.821472 
	C865.737122,705.785767 872.242249,692.926514 872.123962,676.429810 
	C871.916199,647.455872 872.410950,618.476807 872.611572,588.999878 
M686.499939,349.657898 
	C719.343811,349.652771 752.188293,349.682678 785.646240,349.588623 
	C785.022278,347.273407 784.912659,346.444885 784.585449,345.713806 
	C772.813965,319.410522 761.609558,292.839813 748.332092,267.238892 
	C741.008850,253.118607 732.170166,240.035751 720.540710,228.992813 
	C715.318237,224.033752 709.410767,220.282547 702.198608,219.566177 
	C682.815735,217.640945 663.408813,215.944763 643.998047,214.316971 
	C624.916138,212.716782 605.816223,211.331848 586.727051,209.816971 
	C563.319519,207.959427 539.938904,205.604141 516.439148,205.283615 
	C475.926849,204.731049 435.506927,206.640076 395.148041,210.109146 
	C358.161804,213.288315 321.165344,216.349380 284.172729,219.454407 
	C276.482269,220.099915 269.518646,222.555756 263.750427,227.817276 
	C253.155670,237.481369 244.959076,249.105530 238.462494,261.691315 
	C224.631973,288.485016 212.417984,316.068237 200.005356,343.544647 
	C199.339157,345.019287 198.463531,346.523590 199.214249,349.657471 
	C361.309448,349.657471 523.404663,349.657471 686.499939,349.657898 
M136.128357,350.448181 
	C136.576401,350.001740 137.407745,349.561707 137.415283,349.107971 
	C137.539383,341.635223 137.600830,334.160614 137.578323,326.686707 
	C137.571594,324.452545 135.895798,324.018982 134.083206,324.132751 
	C120.984642,324.955109 107.882065,325.905243 94.998734,328.483154 
	C89.477142,329.587982 87.195618,335.116516 89.647301,340.147003 
	C91.948402,344.868561 95.710663,347.342194 101.056969,347.724579 
	C112.486771,348.542114 123.901039,349.576843 136.128357,350.448181 
M857.293518,324.312347 
	C855.308594,324.153259 853.263672,324.243713 851.351257,323.783325 
	C847.312378,322.811066 845.899902,324.281219 846.055908,328.313507 
	C846.261169,333.621399 846.256775,338.951172 846.025391,344.257690 
	C845.852478,348.224426 847.077515,349.995178 851.360168,349.819550 
	C858.325928,349.533905 865.311707,349.707336 872.288818,349.736572 
	C877.567261,349.758698 882.445129,348.280518 887.079346,345.893555 
	C893.620483,342.524323 894.763123,336.491882 890.201782,330.703094 
	C887.533020,327.316132 883.837952,326.750031 880.013184,326.375275 
	C872.747803,325.663361 865.474670,325.030212 857.293518,324.312347 
z"/>
<path fill="#FFFFFF" opacity="1.000000" stroke="none" 
	d="
M178.138016,670.761719 
	C212.240280,673.704834 245.890732,676.674988 279.551178,679.526978 
	C286.680756,680.131042 293.843811,680.544922 300.996643,680.635193 
	C341.478394,681.145752 381.966675,681.267700 422.443420,682.020569 
	C484.420227,683.173279 546.399109,683.096069 608.374207,682.561279 
	C639.664062,682.291260 670.918030,680.382690 702.131714,677.984985 
	C727.191223,676.059998 752.277771,674.489136 777.346130,672.676086 
	C788.135071,671.895752 798.901550,670.801453 809.692810,670.060669 
	C813.143005,669.823853 814.292725,668.001526 814.551331,664.995056 
	C814.879272,661.183594 815.157837,657.365601 815.601685,653.567200 
	C815.979492,650.334106 814.802246,648.918579 811.449158,649.163330 
	C798.997864,650.072021 786.535095,650.824280 774.085693,651.756714 
	C755.161804,653.174133 736.258423,654.896790 717.320984,656.086487 
	C707.093140,656.729004 700.591797,651.992615 699.810059,644.382812 
	C699.022522,636.716431 705.271057,629.363281 714.721863,627.792542 
	C721.430664,626.677551 728.288818,626.417542 735.090637,625.914734 
	C759.158997,624.135742 783.234070,622.447754 807.301453,620.655518 
	C814.589172,620.112793 821.829895,618.643066 829.182556,619.557800 
	C839.566467,620.849731 845.504395,627.189575 845.284912,637.648499 
	C844.958862,653.180969 842.136841,668.420837 838.353027,683.436218 
	C836.326355,691.478516 830.467773,696.083252 822.355530,697.327026 
	C803.919434,700.153687 785.360535,702.110657 766.755249,703.177246 
	C726.187500,705.502930 685.578369,706.974731 644.968994,708.454773 
	C605.182617,709.904785 565.395935,710.876770 525.587830,711.551270 
	C471.765564,712.463196 417.961151,711.469116 364.162170,710.790955 
	C318.886292,710.220276 273.635925,707.921936 228.532852,703.460510 
	C206.505844,701.281738 184.449051,699.404358 162.420532,697.240234 
	C153.263016,696.340515 146.769897,691.696167 144.364471,682.503845 
	C140.825500,668.979553 137.131241,655.449768 137.719971,641.262207 
	C137.843552,638.283875 138.144104,635.274780 138.754669,632.361938 
	C140.716278,623.003845 144.898041,619.459595 154.394333,619.776062 
	C177.191162,620.535706 199.909729,622.580261 222.645264,624.332336 
	C237.581406,625.483337 252.549759,626.268616 267.461182,627.670105 
	C277.493683,628.613037 283.975891,636.327332 283.283417,645.453003 
	C282.814758,651.628845 279.176605,655.175537 272.957184,655.287659 
	C255.112320,655.609314 237.360931,653.801270 219.578934,652.766602 
	C203.459244,651.828796 187.358170,650.562439 171.254105,649.370361 
	C167.282867,649.076355 165.550873,650.175659 166.979263,654.471680 
	C167.918518,657.296509 168.670395,660.271240 168.899445,663.225830 
	C169.336761,668.867249 172.188187,671.244324 178.138016,670.761719 
z"/>
<path fill="#FFFFFF" opacity="1.000000" stroke="none" 
	d="
M624.099365,615.406128 
	C621.189758,615.738159 618.711609,616.236938 616.233215,616.238525 
	C534.244568,616.289673 452.255829,616.355469 370.267303,616.256409 
	C351.651672,616.233887 336.305969,609.022888 324.984344,593.910645 
	C317.692902,584.177979 313.342957,572.962646 309.060486,561.774963 
	C300.301331,538.892029 294.318970,515.114624 287.090485,491.739716 
	C283.402557,479.813934 288.220306,472.828430 300.468475,470.629761 
	C305.938416,469.647888 311.436737,469.941132 316.919861,469.938080 
	C436.236969,469.871765 555.554138,469.852325 674.871277,469.829803 
	C678.031921,469.829193 681.184448,469.741760 684.309387,470.539276 
	C693.073364,472.775970 697.593201,479.250397 695.778870,488.087921 
	C691.215149,510.316833 684.223633,531.878845 676.309387,553.080994 
	C671.497742,565.971130 667.715698,579.427979 659.689514,590.950012 
	C650.993164,603.434021 639.895020,612.464539 624.099365,615.406128 
M558.541687,587.566772 
	C577.197754,587.607422 595.853943,587.711365 614.509766,587.659424 
	C622.646912,587.636780 629.518311,584.602478 634.246216,577.787292 
	C640.157593,569.266052 644.893005,560.124023 648.048035,550.192261 
	C651.775940,538.457153 655.683044,526.778564 659.360535,515.027893 
	C660.933838,510.000854 663.257690,505.172943 663.989929,499.502472 
	C548.924683,499.502472 434.169708,499.502472 319.450256,499.502472 
	C319.377686,500.326233 319.235626,500.693176 319.336395,500.972565 
	C326.843353,521.793457 332.291321,543.302429 340.358246,563.934753 
	C346.444000,579.500000 355.855896,588.318970 375.738647,587.976379 
	C417.534424,587.256287 459.343506,587.243774 501.147705,587.111267 
	C519.950378,587.051697 538.754456,587.400879 558.541687,587.566772 
z"/>
<path fill="#FFFFFF" opacity="1.000000" stroke="none" 
	d="
M713.688782,511.758118 
	C716.888000,503.114960 719.700256,494.744171 721.569763,486.118988 
	C723.577637,476.855194 729.467896,471.941040 738.318176,469.713257 
	C769.921692,461.758240 801.882141,455.232758 833.177063,446.038818 
	C835.084717,445.478394 837.067444,445.072449 839.043640,444.863678 
	C848.245117,443.891571 854.542358,447.592499 857.831055,456.229645 
	C861.356140,465.487518 861.883789,475.365448 863.284973,485.054443 
	C865.049744,497.257446 865.047852,509.593048 866.031189,521.855469 
	C867.058716,534.670349 864.016968,538.959473 851.213745,540.721436 
	C830.627625,543.554504 809.959351,545.799072 789.313965,548.190308 
	C767.182129,550.753723 745.099121,553.722656 722.893433,555.678101 
	C709.489441,556.858459 701.483704,547.643494 705.524658,534.687866 
	C707.899719,527.072937 710.870056,519.643555 713.688782,511.758118 
M834.631470,485.860443 
	C834.441284,484.542358 834.046082,483.216309 834.096985,481.907593 
	C834.299744,476.694611 832.056519,476.091125 827.357971,477.255707 
	C802.652832,483.378845 777.868530,489.182404 753.105957,495.072906 
	C751.477844,495.460175 749.542480,495.520477 748.872803,497.283752 
	C745.529297,506.086914 742.089050,514.866638 739.647156,524.074158 
	C743.798157,525.568054 747.363342,524.136963 750.924683,523.746765 
	C778.037476,520.776367 805.136108,517.675781 832.250183,514.717346 
	C835.887634,514.320496 837.124268,512.634827 836.757690,509.122772 
	C835.980591,501.679291 835.370117,494.218353 834.631470,485.860443 
z"/>
<path fill="#FFFFFF" opacity="1.000000" stroke="none" 
	d="
M275.306763,526.823608 
	C276.363495,530.043335 277.556091,532.829529 278.190125,535.737610 
	C280.846802,547.922729 272.176849,557.253174 259.738464,555.781128 
	C238.277618,553.241211 216.814621,550.719604 195.351456,548.199341 
	C173.063736,545.582214 150.768539,543.027344 128.489670,540.337158 
	C120.505501,539.373108 119.212288,537.666443 119.411385,529.694702 
	C119.880875,510.896637 120.350533,492.098511 120.778290,473.299438 
	C120.928696,466.689575 122.364975,460.451660 125.725914,454.709564 
	C131.029938,445.647827 136.787933,442.939697 147.002579,445.471771 
	C166.054291,450.194427 185.019516,455.264709 204.052353,460.065033 
	C219.532455,463.969360 235.036835,467.784271 250.581467,471.420807 
	C254.056580,472.233765 256.034668,473.863007 257.236450,477.220367 
	C263.122498,493.663696 269.185394,510.043762 275.306763,526.823608 
M167.219299,480.421753 
	C161.226501,479.289825 155.437805,477.105133 149.353500,476.636475 
	C148.021805,478.322540 148.389557,480.045532 148.268448,481.660126 
	C147.745834,488.628265 147.297043,495.602539 146.707199,502.564911 
	C145.613419,515.475708 145.558746,514.538818 156.274017,515.074768 
	C156.604462,515.091309 156.929428,515.197205 157.259949,515.235718 
	C184.194992,518.375000 211.128662,521.526367 238.069916,524.611450 
	C239.643127,524.791565 241.378143,525.219055 243.447800,523.630554 
	C241.041946,517.142456 238.439011,510.521118 236.136658,503.796814 
	C234.026962,497.635254 229.825500,494.519470 223.527451,493.159088 
	C204.990295,489.154999 186.524338,484.821228 167.219299,480.421753 
z"/>
</svg>
