<svg version="1.1" id="Layer_1" xmlns="http://www.w3.org/2000/svg" xmlns:xlink="http://www.w3.org/1999/xlink" x="0px" y="0px"
	 width="100%" viewBox="0 0 976 976" enable-background="new 0 0 976 976" xml:space="preserve">
<path fill="#FFFFFF" opacity="1.000000" stroke="none" 
	d="
M583.279663,832.000000 
	C583.280212,840.166443 583.290344,847.832825 583.278748,855.499268 
	C583.253479,872.157288 572.300110,883.765808 555.604187,883.847107 
	C513.440002,884.052490 471.273529,884.024292 429.109253,883.824524 
	C412.798859,883.747314 402.780487,876.367676 399.436646,863.080872 
	C398.733765,860.288147 398.723999,857.471985 398.724426,854.640869 
	C398.727905,830.808289 398.648529,806.975037 398.836670,783.143860 
	C398.868225,779.147400 397.628357,777.246704 393.803772,775.950684 
	C381.336700,771.725952 369.059906,766.939026 357.418701,760.746399 
	C354.094879,758.978271 352.281464,760.310486 350.130066,762.474304 
	C333.446777,779.253601 316.713257,795.983093 299.989563,812.722229 
	C286.431824,826.292542 270.954498,826.454651 257.444641,812.977234 
	C227.479477,783.083801 197.562012,753.142395 167.684174,723.161743 
	C156.486710,711.925720 156.265625,695.537170 167.390869,684.194214 
	C184.310303,666.943604 201.373672,649.829712 218.642899,632.930542 
	C222.151672,629.496948 222.375641,626.989319 220.294922,622.694702 
	C215.072174,611.914917 210.131119,600.958618 206.607635,589.470398 
	C205.252869,585.053223 203.094254,583.142639 198.101715,583.199341 
	C174.605713,583.465942 151.104630,583.336243 127.605598,583.268005 
	C108.879593,583.213684 98.340408,572.386108 98.388542,553.607910 
	C98.496597,511.451630 98.903969,469.290863 98.417511,427.140839 
	C98.216194,409.696747 111.708229,398.320984 126.853897,398.623810 
	C150.510330,399.096771 174.184204,398.632812 197.848190,398.845612 
	C202.650970,398.888824 205.068634,397.271637 206.522644,392.704437 
	C210.214920,381.106506 214.884781,369.850708 220.455353,359.038361 
	C222.627823,354.821655 221.801559,352.291382 218.642075,349.171173 
	C201.806778,332.545319 185.176804,315.711731 168.432632,298.993286 
	C163.691391,294.259308 160.496719,288.855011 159.563782,282.082397 
	C158.359314,273.338745 160.864594,265.734589 166.906601,259.649628 
	C197.665726,228.671829 228.513489,197.780762 259.509766,167.040359 
	C270.509857,156.131073 286.804688,156.430115 298.110321,167.544342 
	C315.220917,184.365311 332.199341,201.323868 349.015533,218.438568 
	C352.458130,221.942291 355.380188,222.233902 359.564331,220.114380 
	C370.122284,214.766144 381.082123,210.279465 392.346161,206.658966 
	C397.040192,205.150208 398.892609,202.761719 398.842010,197.678513 
	C398.606323,174.015030 398.705688,150.347687 398.770844,126.681953 
	C398.818848,109.243179 410.000732,98.455902 427.323273,98.513367 
	C463.321655,98.632790 499.321136,98.644516 535.319153,98.482147 
	C542.142639,98.451370 548.960388,98.364471 555.787964,98.451988 
	C571.965454,98.659348 583.206177,109.641548 583.251160,125.776321 
	C583.318542,149.942032 583.377136,174.108765 583.193115,198.273193 
	C583.160156,202.597855 584.364014,204.936539 588.643188,206.282944 
	C600.415466,209.986969 611.708862,214.965210 622.838562,220.265778 
	C626.855286,222.178741 629.690735,221.825897 632.970276,218.487106 
	C649.318359,201.843735 665.931458,185.460785 682.427246,168.962158 
	C695.585022,155.802124 711.378418,155.829742 724.664917,169.105240 
	C754.253113,198.669052 783.852844,228.221451 813.405151,257.821167 
	C826.074402,270.510681 825.993835,286.517517 813.251648,299.337494 
	C796.452881,316.238953 779.676392,333.163971 762.709656,349.895691 
	C759.801636,352.763367 759.540894,354.960327 761.366943,358.516022 
	C766.925903,369.340698 771.622498,380.576965 775.322754,392.171936 
	C776.853821,396.969543 779.129395,398.972198 784.530701,398.894653 
	C807.691833,398.562103 830.860535,398.764648 854.026428,398.749969 
	C872.704956,398.738129 883.687439,409.265900 883.874451,427.945129 
	C884.081360,448.608917 883.904114,469.276489 883.899658,489.942413 
	C883.895020,511.441681 884.018738,532.941833 883.854553,554.439880 
	C883.738708,569.605652 875.668701,579.922668 862.052124,582.741455 
	C859.634033,583.241943 857.087524,583.260681 854.599854,583.264771 
	C830.934021,583.303406 807.267212,583.396973 783.603027,583.198120 
	C779.199463,583.161133 776.966125,584.596497 775.638977,588.772217 
	C771.749451,601.010498 766.822510,612.859497 760.975891,624.291565 
	C759.408203,627.356995 759.831360,629.275940 762.240356,631.661438 
	C778.935059,648.193909 795.437195,664.920776 812.110168,681.475342 
	C826.369263,695.633179 826.406555,711.319580 812.132446,725.569641 
	C782.413452,755.238525 752.793884,785.007263 723.018372,814.619202 
	C711.701294,825.874146 694.981262,825.576965 683.679626,814.284119 
	C680.850586,811.457336 678.029602,808.622498 675.200256,805.796021 
	C660.818176,791.429382 646.372131,777.125610 632.107788,762.643066 
	C629.480896,759.975952 627.406616,759.409607 623.929688,761.166443 
	C612.776611,766.802002 601.244019,771.634827 589.358826,775.510193 
	C584.957825,776.945129 583.045471,779.034668 583.155457,784.014893 
	C583.504761,799.836487 583.281372,815.670654 583.279663,832.000000 
M675.109253,252.609222 
	C667.579529,260.159210 660.137451,267.799133 652.497986,275.236389 
	C642.981628,284.500916 630.520142,286.045746 618.946777,279.593109 
	C615.458374,277.648224 612.084290,275.494812 608.568481,273.603149 
	C590.144958,263.690735 570.767639,256.267578 550.489868,251.079239 
	C536.793091,247.574753 529.621155,237.879242 529.633179,223.717636 
	C529.651550,202.052246 529.527893,180.385498 529.758545,158.722458 
	C529.811523,153.747162 528.346741,152.033829 523.239990,152.090042 
	C501.910522,152.324875 480.576904,152.173233 459.244812,152.186874 
	C453.014282,152.190857 452.398041,152.741394 452.388214,159.063416 
	C452.354828,180.562012 452.300934,202.061401 452.450317,223.559143 
	C452.548370,237.669373 444.865173,247.891342 431.330841,251.224289 
	C408.214874,256.916809 386.390076,265.800110 365.907745,277.942993 
	C351.018372,286.770142 339.093170,285.121674 326.832642,272.717743 
	C312.191711,257.905579 297.382019,243.260132 282.753723,228.435654 
	C279.648071,225.288391 277.448425,225.132660 274.176422,228.478088 
	C259.611908,243.369492 244.777939,257.997131 230.070557,272.749207 
	C224.566528,278.269989 224.528824,278.635406 230.138290,284.277435 
	C244.706482,298.930206 259.337250,313.520844 273.962402,328.116913 
	C284.880707,339.013489 286.557373,351.206055 278.820404,364.371857 
	C266.336548,385.615234 256.861786,408.071442 251.046539,432.063202 
	C248.029846,444.509003 237.673050,452.353668 224.756363,452.359772 
	C202.924316,452.370117 181.092270,452.349579 159.260223,452.352112 
	C152.237869,452.352936 152.154343,452.432861 152.152481,459.197876 
	C152.146622,480.529938 152.291687,501.863525 152.052658,523.192871 
	C151.997131,528.148499 153.307800,529.848450 158.475708,529.786316 
	C180.471268,529.521851 202.471817,529.654602 224.470520,529.674988 
	C238.244507,529.687744 247.980698,537.711731 251.333496,551.128906 
	C257.059875,574.044678 265.815094,595.778320 277.934479,616.078369 
	C286.542755,630.497314 285.197296,642.645996 273.388672,654.411865 
	C258.515137,669.231689 243.731644,684.142334 228.782944,698.885620 
	C225.466507,702.156494 225.267593,704.557068 228.737488,707.968323 
	C243.948059,722.921631 259.059967,737.980347 273.936310,753.264893 
	C277.538971,756.966309 279.699280,756.714783 283.147614,753.198181 
	C298.197021,737.850464 313.492126,722.743713 328.690704,707.542114 
	C338.338989,697.891907 351.694000,695.637390 362.978699,702.409790 
	C384.573364,715.369568 407.536011,724.852295 431.928314,731.067505 
	C445.307037,734.476379 452.463440,744.321411 452.423889,758.175903 
	C452.361542,780.007751 452.490112,801.841125 452.243256,823.670532 
	C452.189392,828.430115 453.510071,830.004089 458.403320,829.947632 
	C479.565948,829.703491 500.732910,829.840454 521.898315,829.833374 
	C529.352661,829.830872 529.653320,829.553589 529.657349,821.864441 
	C529.668640,800.365784 529.634216,778.867126 529.641235,757.368469 
	C529.645569,744.237183 537.151001,734.301941 549.912109,731.097839 
	C573.670776,725.132324 596.015747,715.854980 617.128967,703.450073 
	C630.815674,695.408569 643.096069,697.252686 654.236694,708.430908 
	C669.292786,723.537720 684.463623,738.530457 699.463257,753.692749 
	C702.462952,756.725037 704.550415,756.837891 707.649353,753.685181 
	C722.717773,738.354980 737.999573,723.234497 753.189941,708.024048 
	C757.676819,703.531311 757.643677,703.390198 753.223755,698.973022 
	C738.255188,684.013855 723.275391,669.065857 708.336670,654.076965 
	C697.202576,642.905457 695.323669,631.016785 703.283081,617.393127 
	C715.718994,596.107361 725.115967,573.666077 731.152405,549.748901 
	C734.386780,536.933838 744.385559,529.659241 757.553711,529.665710 
	C779.552429,529.676575 801.552124,529.568359 823.549133,529.763733 
	C828.289368,529.805847 829.972473,528.315735 829.928711,523.493896 
	C829.736816,502.330231 829.850037,481.163788 829.846741,459.998383 
	C829.845642,452.702576 829.523315,452.363647 822.266968,452.357574 
	C801.101624,452.339844 779.936157,452.361969 758.770874,452.327942 
	C743.583984,452.303528 734.538269,445.338287 730.735474,430.464874 
	C724.878113,407.555939 716.064209,385.899689 703.908691,365.602844 
	C695.298950,351.226501 696.984253,339.152466 708.936768,327.300598 
	C723.964600,312.399292 738.851990,297.356262 753.901978,282.477509 
	C756.715576,279.695923 757.087463,277.749664 754.008972,274.718781 
	C738.335205,259.287445 722.816833,243.696579 707.378540,228.029068 
	C704.487854,225.095474 702.466858,225.062378 699.600586,228.029068 
	C691.728577,236.176666 683.620178,244.095840 675.109253,252.609222 
z"/>
<path fill="#FFFFFF" opacity="1.000000" stroke="none" 
	d="
M522.046265,296.727905 
	C564.536133,303.829956 600.998352,322.117157 630.817627,352.559418 
	C665.991943,388.468597 685.281860,431.659027 687.401917,482.190613 
	C689.646790,535.697021 672.815125,582.483215 637.351501,622.399597 
	C606.436462,657.196228 567.595764,678.249634 521.658997,685.262085 
	C464.687225,693.959106 413.050507,680.384888 367.947906,644.487183 
	C332.777557,616.494690 309.940155,580.119568 299.653015,536.257019 
	C291.093475,499.760834 292.109436,463.341858 304.645081,427.964355 
	C327.052155,364.727875 370.599976,322.759033 434.683563,302.517975 
	C463.125885,293.534332 492.218597,292.454498 522.046265,296.727905 
M386.452515,588.071533 
	C389.501038,592.094543 393.448425,595.212402 397.194855,598.501038 
	C421.027710,619.421631 448.862427,631.406494 480.414398,633.504761 
	C521.892517,636.263062 558.539490,623.650635 588.661194,594.824158 
	C626.421021,558.687988 640.445435,514.142029 631.045349,462.889099 
	C625.377502,431.985596 610.115173,405.767487 586.383240,384.987152 
	C548.292114,351.633606 504.277588,340.972107 455.170380,352.799683 
	C427.542145,359.454041 404.476624,374.243927 385.323334,395.248871 
	C363.054016,419.671051 350.552612,448.465698 348.484955,481.249390 
	C345.930725,521.748291 358.642731,557.343689 386.452515,588.071533 
z"/>
</svg>
