<?xml version="1.0" standalone="no"?>
<!DOCTYPE svg PUBLIC "-//W3C//DTD SVG 20010904//EN"
 "http://www.w3.org/TR/2001/REC-SVG-20010904/DTD/svg10.dtd">
<svg version="1.0" xmlns="http://www.w3.org/2000/svg"
 width="512.000000pt" height="512.000000pt" viewBox="0 0 512.000000 512.000000"
 preserveAspectRatio="xMidYMid meet">

<g transform="translate(0.000000,512.000000) scale(0.100000,-0.100000)"
fill="#FFFFFF" stroke="none">
<path d="M2260 4675 c-701 -85 -1326 -446 -1750 -1010 -260 -346 -425 -756
-492 -1220 -19 -131 -15 -500 6 -650 65 -455 222 -835 497 -1206 61 -82 90
-112 128 -132 l49 -27 1861 0 c1832 0 1862 0 1899 20 54 28 72 46 139 135 272
363 438 767 500 1214 20 147 23 520 5 646 -67 464 -232 874 -492 1220 -427
568 -1053 928 -1759 1010 -151 18 -444 18 -591 0z m92 -774 l3 -349 30 -44
c87 -123 263 -123 350 0 l30 44 3 350 3 351 72 -8 c310 -30 688 -181 972 -389
l95 -70 -88 -90 c-60 -62 -93 -104 -102 -131 -44 -135 38 -268 175 -282 83 -9
126 12 225 112 46 47 87 85 90 85 4 0 28 -30 56 -67 221 -301 368 -661 409
-1005 l6 -58 -313 0 c-177 0 -333 -5 -358 -11 -66 -15 -115 -53 -145 -112 -54
-110 -12 -231 99 -283 50 -24 54 -24 384 -24 309 0 332 -1 332 -17 0 -41 -32
-208 -60 -316 -57 -222 -147 -421 -283 -630 l-71 -107 -1706 0 -1706 0 -71
108 c-136 207 -227 408 -282 625 -28 108 -61 281 -61 319 0 17 17 18 333 18
327 0 333 1 382 24 59 27 77 46 104 106 37 81 20 169 -45 234 -60 60 -68 61
-437 64 l-338 3 6 57 c41 344 188 704 409 1005 28 37 52 67 56 67 3 0 44 -38
90 -85 99 -100 142 -121 225 -112 140 14 226 160 171 291 -9 21 -54 78 -101
126 l-85 87 95 69 c181 132 379 233 595 304 137 45 326 85 412 89 l37 1 3
-349z"/>
<path d="M2595 2613 c-324 -162 -592 -297 -595 -300 -2 -2 131 -139 297 -305
l301 -301 301 601 c166 331 298 602 294 601 -5 0 -273 -133 -598 -296z"/>
</g>
</svg>
