<?xml version="1.0" standalone="no"?>
<!DOCTYPE svg PUBLIC "-//W3C//DTD SVG 20010904//EN"
 "http://www.w3.org/TR/2001/REC-SVG-20010904/DTD/svg10.dtd">
<svg version="1.0" xmlns="http://www.w3.org/2000/svg"
 width="300.000000pt" height="250.000000pt" viewBox="0 0 2000.000000 1500.000000"
 preserveAspectRatio="xMidYMid meet">

<g transform="translate(0.000000,1500.000000) scale(0.100000,-0.100000)"
fill="#009985" stroke="none">
<path d="M10320 9080 c-111 -24 -193 -88 -226 -179 -35 -98 -35 -1245 0 -1340
51 -138 176 -189 435 -178 165 6 245 31 306 92 30 30 49 60 60 97 19 64 31
267 21 361 l-8 67 -78 0 -79 0 6 -163 c7 -186 2 -225 -32 -265 -36 -43 -98
-57 -245 -57 -153 1 -205 18 -235 81 -18 37 -19 70 -20 639 0 579 1 601 20
639 34 67 75 81 235 81 148 0 192 -10 231 -51 23 -25 24 -31 27 -220 l3 -194
80 0 81 0 -4 193 c-3 184 -4 194 -30 249 -30 65 -84 109 -162 134 -60 19 -316
28 -386 14z"/>
<path d="M7910 8235 l0 -845 80 0 80 0 0 313 c0 171 -5 452 -10 622 -5 171
-10 378 -12 460 l-3 150 27 3 c33 4 23 64 98 -588 34 -292 77 -618 98 -735
l38 -210 104 -3 105 -3 42 239 c26 146 64 428 98 728 71 634 61 574 90 574 13
0 26 -4 29 -8 3 -5 -1 -231 -9 -503 -8 -272 -15 -617 -15 -766 l0 -273 80 0
80 0 0 845 0 845 -145 0 c-80 0 -145 -1 -145 -2 0 -2 -25 -147 -55 -323 -50
-285 -59 -367 -90 -750 -19 -236 -35 -438 -35 -447 0 -21 -48 -26 -55 -5 -2 6
-18 197 -36 422 -27 354 -39 457 -88 755 l-56 345 -148 3 -147 3 0 -846z"/>
<path d="M9074 9056 c3 -13 80 -293 171 -621 l165 -597 0 -224 0 -224 80 0 80
0 0 218 0 217 173 625 173 625 -79 3 c-44 2 -81 1 -83 -1 -2 -2 -33 -107 -68
-234 -43 -154 -81 -319 -113 -497 l-48 -266 -32 0 c-18 0 -33 4 -33 8 0 5 -22
125 -50 267 -41 211 -117 517 -171 693 l-11 32 -80 0 c-80 0 -80 0 -74 -24z"/>
<path d="M11315 9068 c-2 -7 -60 -375 -130 -818 -69 -443 -128 -817 -131 -832
l-6 -28 80 0 80 0 10 63 c6 34 23 140 38 235 l27 172 201 0 202 0 33 -217 c18
-120 35 -226 37 -235 5 -15 18 -18 85 -18 77 0 79 1 74 23 -5 21 -265 1653
-265 1662 0 3 -74 5 -165 5 -124 0 -167 -3 -170 -12z m247 -313 c15 -99 44
-292 63 -430 19 -137 38 -265 41 -282 l5 -33 -186 0 c-119 0 -185 4 -185 10 0
19 130 895 135 908 3 9 20 12 52 10 l48 -3 27 -180z"/>
<path d="M12080 8235 l0 -845 80 0 80 0 0 320 0 320 129 0 128 0 139 -320 139
-319 83 -1 c45 0 82 4 82 8 0 5 -65 154 -145 332 -80 177 -144 324 -143 325 2
1 24 9 50 19 118 44 162 107 179 257 15 129 6 479 -14 542 -25 79 -62 123
-131 157 -83 40 -161 50 -428 50 l-228 0 0 -845z m468 695 c102 -13 140 -34
164 -87 17 -40 19 -69 20 -282 0 -244 -7 -305 -40 -334 -45 -41 -92 -50 -274
-55 l-178 -4 0 386 0 386 118 0 c64 0 150 -5 190 -10z"/>
<path d="M4725 8179 c-349 -22 -641 -162 -848 -407 l-66 -79 -108 -6 c-320
-19 -634 -124 -796 -266 -32 -28 -67 -51 -78 -51 -23 0 -61 -18 -71 -34 -4 -6
-8 -45 -8 -87 0 -96 -14 -139 -44 -139 -53 0 -78 -81 -31 -102 19 -9 25 -19
25 -45 0 -63 61 -28 74 43 19 98 96 186 214 242 75 36 80 37 192 37 114 0 117
-1 191 -37 117 -58 201 -160 233 -280 20 -78 31 -95 76 -118 38 -19 59 -20
810 -20 l772 0 28 28 c19 19 32 47 40 85 27 134 120 250 247 310 64 30 75 32
178 32 103 0 114 -2 177 -32 111 -52 198 -148 234 -259 34 -103 81 -127 239
-125 168 2 203 18 175 83 -7 18 -13 53 -12 78 1 48 -18 80 -49 80 -10 0 -35
29 -65 78 -133 212 -406 524 -599 682 -183 150 -370 239 -599 285 -68 13 -349
37 -396 33 -8 0 -69 -4 -135 -9z m95 -314 l0 -225 -433 0 c-449 0 -457 1 -457
41 0 28 189 200 276 250 169 98 367 155 547 158 l67 1 0 -225z m428 195 c113
-23 217 -57 307 -103 147 -73 369 -251 363 -291 l-3 -21 -502 -3 -503 -2 0
226 0 227 118 -6 c65 -3 164 -15 220 -27z"/>
<path d="M3055 7147 c-62 -30 -126 -93 -156 -155 -19 -38 -24 -63 -24 -132 0
-73 4 -92 27 -137 77 -145 233 -209 388 -158 63 21 143 92 178 159 22 43 26
64 26 136 0 72 -4 93 -26 135 -28 55 -96 123 -149 151 -23 12 -63 19 -124 21
-79 4 -96 1 -140 -20z m226 -117 c21 -11 51 -39 66 -62 24 -35 28 -52 28 -108
0 -56 -4 -73 -28 -108 -101 -153 -340 -91 -355 93 -13 158 144 258 289 185z"/>
<path d="M3136 6898 c-9 -12 -16 -29 -16 -38 0 -9 7 -26 16 -38 23 -34 83 -27
104 11 13 24 13 30 0 55 -21 37 -81 44 -104 10z"/>
<path d="M5660 7161 c-77 -25 -146 -86 -188 -166 -23 -43 -27 -62 -27 -135 0
-73 4 -92 27 -135 78 -148 232 -212 388 -160 63 21 143 93 178 159 22 43 26
64 26 136 0 72 -4 93 -26 135 -28 55 -96 123 -149 151 -38 20 -186 29 -229 15z
m191 -131 c21 -11 51 -39 66 -62 24 -35 28 -52 28 -108 0 -56 -4 -73 -28 -108
-101 -153 -340 -91 -355 92 -13 159 144 260 289 186z"/>
<path d="M5706 6898 c-9 -12 -16 -29 -16 -38 0 -9 7 -26 16 -38 23 -34 83 -27
104 11 13 24 13 30 0 55 -21 37 -81 44 -104 10z"/>
<path d="M8323 6553 l27 -4 -2 -222 -3 -221 -25 -7 c-14 -4 9 -7 55 -7 44 1
68 3 53 5 l-28 4 0 230 0 229 -52 -1 c-30 -1 -41 -4 -25 -6z"/>
<path d="M12508 6553 l32 -4 0 -212 c0 -117 -4 -217 -8 -223 -4 -7 -18 -14
-32 -17 -14 -2 13 -4 60 -4 47 0 73 2 58 4 l-28 4 0 230 0 229 -57 -2 c-36 -1
-45 -3 -25 -5z"/>
<path d="M13623 6553 l27 -4 -2 -222 -3 -221 -25 -7 c-20 -6 -17 -7 17 -8 34
-1 43 3 48 20 l7 21 24 -23 c36 -34 112 -38 160 -9 68 43 93 143 55 226 -24
53 -55 74 -108 74 -34 0 -49 -6 -75 -31 -29 -28 -30 -29 -4 -10 50 36 103 24
131 -29 19 -37 20 -140 1 -185 -32 -76 -130 -76 -162 0 -16 40 -18 122 -4 160
7 17 7 24 0 20 -6 -4 -10 37 -10 114 l0 121 -52 -1 c-30 -1 -41 -4 -25 -6z"/>
<path d="M15848 6553 l42 -4 0 -90 c0 -94 -4 -100 -46 -73 -35 23 -117 14
-149 -16 -36 -34 -55 -82 -55 -140 0 -58 18 -99 56 -129 47 -37 140 -19 164
32 9 19 9 20 -2 6 -7 -9 -23 -21 -35 -27 -85 -46 -154 60 -123 188 14 59 47
90 95 90 66 0 111 -98 87 -190 -5 -23 -6 -40 -1 -40 5 0 9 -16 9 -35 l0 -35
48 1 c29 1 36 4 20 6 l-28 4 0 230 0 229 -62 -2 c-50 -1 -54 -2 -20 -5z"/>
<path d="M9213 6524 c-8 -22 10 -49 32 -49 10 0 22 7 28 16 15 24 1 49 -28 49
-15 0 -28 -7 -32 -16z"/>
<path d="M16387 6534 c-15 -15 -7 -53 13 -59 27 -8 52 12 48 39 -3 21 -46 35
-61 20z"/>
<path d="M7960 6508 c-152 -78 -151 -326 2 -402 74 -37 138 -35 240 8 12 6 18
2 21 -16 2 -13 5 7 6 45 0 37 -1 67 -4 67 -2 0 -14 -18 -25 -41 -37 -72 -146
-100 -215 -55 -48 31 -69 91 -69 191 0 140 42 203 142 212 62 6 109 -20 142
-78 l25 -44 3 38 c2 20 1 52 -1 70 -3 28 -5 29 -11 11 -7 -21 -9 -21 -39 -6
-18 9 -63 18 -102 20 -58 3 -78 -1 -115 -20z"/>
<path d="M10424 6511 c-113 -51 -157 -209 -91 -326 53 -93 172 -130 285 -87
40 16 52 17 52 7 0 -8 5 -17 10 -20 6 -4 10 18 10 59 0 66 -12 88 -24 42 -3
-13 -22 -38 -41 -54 -90 -80 -213 -39 -246 80 -16 62 -7 187 17 229 62 106
201 104 259 -4 11 -20 22 -37 25 -37 3 0 3 30 1 67 -3 38 -6 58 -8 46 l-4 -21
-42 19 c-55 24 -148 25 -203 0z"/>
<path d="M13185 6521 c-3 -5 -41 -101 -84 -213 -74 -189 -82 -203 -108 -209
-18 -4 -4 -7 37 -7 39 0 55 3 39 7 l-27 6 27 70 27 70 83 0 84 0 27 -72 28
-72 -27 -4 c-14 -2 8 -4 49 -4 41 0 66 2 55 4 -16 3 -38 50 -104 219 -46 117
-88 214 -92 214 -4 0 -10 -4 -14 -9z m34 -166 c17 -44 31 -83 31 -87 0 -5 -31
-8 -70 -8 -38 0 -70 4 -70 9 0 24 64 181 71 174 4 -4 22 -44 38 -88z"/>
<path d="M9448 6473 c-11 -3 -18 -17 -20 -41 -2 -29 -8 -38 -28 -43 l-25 -7
28 -1 27 -1 0 -124 c0 -110 2 -126 21 -150 28 -35 80 -36 114 -1 14 13 25 31
25 40 0 23 -8 18 -25 -14 -17 -34 -50 -48 -70 -31 -12 10 -15 41 -15 146 l0
133 58 4 57 3 -57 2 -58 2 0 45 c0 25 -3 44 -7 44 -5 -1 -16 -3 -25 -6z"/>
<path d="M11628 6472 c-11 -2 -18 -15 -20 -40 -3 -32 -7 -38 -33 -43 l-30 -7
33 -1 32 -1 0 -128 c0 -121 1 -130 23 -150 39 -37 98 -28 122 19 17 33 18 39
6 39 -5 0 -12 -11 -15 -25 -4 -14 -18 -31 -32 -37 -20 -10 -28 -9 -42 6 -14
14 -18 40 -20 146 l-4 130 64 2 63 1 -60 6 -60 6 -5 40 c-4 31 -9 40 -22 37z"/>
<path d="M14418 6473 c-11 -3 -18 -17 -20 -41 -2 -29 -8 -38 -28 -43 l-25 -7
28 -1 27 -1 0 -109 c0 -154 17 -191 89 -191 31 0 71 38 71 68 0 8 -10 0 -23
-19 -26 -39 -48 -47 -71 -24 -13 13 -16 40 -16 146 l0 129 63 2 62 1 -60 6
-60 6 -3 43 c-2 23 -6 41 -10 41 -4 -1 -15 -3 -24 -6z"/>
<path d="M14668 6472 c-11 -2 -18 -15 -20 -40 -3 -32 -7 -38 -33 -43 l-30 -7
33 -1 32 -1 0 -128 c0 -121 1 -130 23 -150 42 -40 107 -25 125 28 14 39 1 39
-16 0 -18 -40 -50 -49 -74 -20 -15 19 -18 41 -18 146 l0 124 63 2 62 1 -60 6
-60 6 -5 40 c-4 31 -9 40 -22 37z"/>
<path d="M8568 6384 c-19 -10 -28 -23 -28 -40 0 -35 28 -28 50 11 12 22 25 31
49 33 48 5 81 -29 81 -83 l0 -42 -60 -6 c-98 -11 -140 -40 -140 -98 0 -77 97
-107 162 -50 l34 29 17 -30 c14 -24 22 -29 49 -26 25 2 36 10 46 31 8 16 11
31 8 34 -3 3 -10 -6 -15 -20 -5 -14 -14 -28 -19 -31 -21 -13 -30 25 -34 137
-3 116 -4 119 -31 143 -23 19 -39 24 -85 24 -31 -1 -69 -8 -84 -16z m152 -180
c0 -37 -5 -51 -29 -75 -54 -53 -121 -30 -121 41 0 21 7 43 15 50 17 14 66 27
108 29 26 1 27 -1 27 -45z"/>
<path d="M9042 6387 c-12 -7 -30 -24 -39 -37 -14 -22 -12 -21 15 4 l32 30 28
-26 c29 -27 52 -27 52 1 0 38 -43 52 -88 28z"/>
<path d="M10842 6383 c-41 -20 -82 -88 -82 -136 0 -62 28 -115 75 -142 78 -46
170 -26 216 47 30 48 24 156 -11 193 -52 56 -131 71 -198 38z m130 -7 c42 -31
62 -148 37 -213 -24 -65 -85 -92 -140 -63 -68 37 -69 240 -2 279 25 15 85 13
105 -3z"/>
<path d="M11302 6387 c-12 -7 -30 -24 -39 -37 -17 -24 -16 -24 16 3 18 15 41
27 51 27 61 0 80 -40 80 -163 0 -98 -5 -110 -45 -120 -11 -2 16 -5 60 -4 44 0
68 2 53 4 l-28 4 0 120 c0 120 0 121 -29 150 -32 32 -78 38 -119 16z"/>
<path d="M11949 6361 l-39 -39 0 34 0 34 -52 -1 c-30 -1 -41 -4 -25 -6 l28 -4
-3 -137 c-3 -136 -3 -136 -28 -143 -14 -4 12 -7 60 -6 47 0 70 2 53 4 l-33 4
0 95 c0 99 10 132 49 168 21 19 22 19 49 -6 29 -27 52 -27 52 1 0 53 -59 54
-111 2z"/>
<path d="M12182 6380 c-49 -30 -72 -75 -72 -141 0 -101 66 -164 166 -156 62 4
97 28 125 85 40 81 11 180 -65 216 -47 22 -114 20 -154 -4z m129 0 c33 -18 51
-67 51 -140 0 -102 -32 -150 -99 -150 -62 0 -103 59 -103 149 0 91 39 151 97
151 19 0 43 -5 54 -10z"/>
<path d="M14105 6390 c-51 -21 -85 -83 -85 -158 0 -88 64 -152 151 -152 48 0
108 30 117 60 3 8 -11 0 -32 -18 -79 -69 -159 -29 -181 91 l-7 37 88 0 c98 0
137 13 142 47 10 71 -108 129 -193 93z m124 -26 c25 -32 27 -61 4 -86 -13 -14
-31 -18 -90 -18 -40 0 -73 3 -73 8 0 4 5 24 10 44 21 74 108 105 149 52z"/>
<path d="M14922 6380 c-46 -28 -76 -97 -70 -162 9 -91 72 -142 166 -135 51 4
102 34 102 61 0 6 -8 1 -18 -10 -36 -45 -99 -57 -141 -28 -28 20 -51 72 -51
114 l0 30 88 0 c101 0 132 14 132 59 0 76 -128 120 -208 71z m138 -10 c27 -27
27 -85 1 -100 -11 -5 -50 -10 -87 -10 l-67 0 6 42 c10 77 98 117 147 68z"/>
<path d="M15353 6380 c-18 -11 -33 -22 -33 -25 0 -3 11 2 25 11 25 16 27 16
54 -10 25 -24 29 -25 41 -11 10 12 11 21 3 33 -15 25 -53 25 -90 2z"/>
<path d="M16215 6389 c-11 -6 -32 -25 -47 -42 l-28 -31 0 37 0 37 -52 -2 c-36
-1 -43 -2 -20 -5 l32 -4 0 -128 c0 -133 -3 -143 -45 -154 -11 -2 21 -4 70 -4
50 0 72 2 51 4 l-39 4 6 98 c5 104 22 152 58 172 18 9 25 7 47 -16 22 -25 26
-26 41 -11 33 34 -27 71 -74 45z"/>
<path d="M16981 6382 c-48 -26 -71 -74 -71 -145 0 -71 19 -107 70 -136 67 -37
164 -21 191 32 10 19 8 19 -18 -5 -36 -34 -83 -45 -123 -28 -35 15 -57 50 -66
109 l-7 41 86 0 c127 0 161 21 138 84 -23 60 -130 86 -200 48z m127 -9 c32
-28 38 -67 13 -92 -17 -17 -33 -21 -91 -21 -63 0 -70 2 -70 19 0 84 91 142
148 94z"/>
<path d="M8898 6383 l32 -4 0 -127 c0 -70 -4 -132 -8 -138 -4 -7 -18 -14 -32
-17 -14 -2 16 -4 65 -4 50 0 75 2 57 4 l-33 4 2 127 c0 70 -2 135 -6 145 -6
13 -18 17 -59 15 -36 -1 -41 -2 -18 -5z"/>
<path d="M9198 6383 l32 -4 0 -123 c0 -128 -6 -150 -45 -159 -11 -3 16 -5 60
-4 44 0 68 2 53 4 l-28 4 0 145 0 144 -52 -2 c-36 -1 -43 -2 -20 -5z"/>
<path d="M9626 6383 c16 -3 36 -38 88 -153 l67 -149 -26 -50 c-36 -72 -82 -93
-103 -46 -13 27 -37 33 -45 11 -10 -25 18 -50 57 -50 66 0 99 48 196 292 38
97 59 136 74 142 15 6 5 8 -34 8 -30 -1 -43 -3 -27 -5 15 -2 27 -6 27 -9 0
-19 -94 -233 -100 -227 -7 7 -100 220 -100 228 0 2 12 6 28 8 15 2 -7 4 -48 4
-41 0 -65 -2 -54 -4z"/>
<path d="M11163 6383 l28 -4 -3 -137 c-3 -136 -3 -136 -28 -143 -15 -4 5 -7
50 -7 41 1 65 3 52 5 -23 4 -23 7 -22 111 1 59 1 124 1 145 l-1 37 -52 -1
c-30 -1 -41 -4 -25 -6z"/>
<path d="M15218 6383 l32 -4 0 -128 c0 -133 -3 -143 -45 -154 -11 -2 21 -4 70
-4 50 0 75 2 58 4 l-33 4 0 100 c0 55 5 109 10 119 8 16 8 18 -5 14 -11 -5
-15 1 -15 25 0 31 0 31 -52 29 -36 -1 -43 -2 -20 -5z"/>
<path d="M16358 6383 l33 -4 -3 -137 -3 -137 -30 -6 c-17 -4 6 -6 55 -6 47 0
73 2 58 4 l-28 4 0 145 0 144 -57 -2 c-36 -1 -46 -3 -25 -5z"/>
<path d="M16545 6383 c16 -3 31 -33 69 -139 48 -134 68 -168 89 -161 7 2 35
66 65 143 29 76 60 145 69 152 14 10 9 12 -33 11 -29 -1 -38 -4 -21 -6 15 -2
27 -6 27 -9 0 -11 -93 -255 -96 -252 -6 6 -94 238 -94 248 0 5 12 11 28 13 15
2 -7 4 -48 4 -41 0 -66 -2 -55 -4z"/>
<path d="M10011 6131 c-15 -27 11 -60 36 -45 23 14 29 44 11 55 -21 14 -37 10
-47 -10z"/>
<path d="M12720 6136 c-27 -33 18 -72 48 -42 13 13 14 20 6 34 -15 23 -38 26
-54 8z"/>
<path d="M17270 6136 c-27 -33 18 -72 48 -42 13 13 14 20 6 34 -15 23 -38 26
-54 8z"/>
</g>
</svg>
