<?xml version="1.0" standalone="no"?>
<!DOCTYPE svg PUBLIC "-//W3C//DTD SVG 20010904//EN"
 "http://www.w3.org/TR/2001/REC-SVG-20010904/DTD/svg10.dtd">
<svg version="1.0" xmlns="http://www.w3.org/2000/svg"
 width="200.000000pt" height="200.000000pt" viewBox="0 0 200.000000 200.000000"
 preserveAspectRatio="xMidYMid meet">

<g transform="translate(0.000000,200.000000) scale(0.100000,-0.100000)"
fill="#FFFFFF" stroke="none">
<path d="M893 1732 c-108 -39 -176 -119 -209 -249 -2 -9 -12 -9 -41 -1 -94 26
-217 -15 -292 -98 -58 -64 -81 -124 -81 -213 0 -120 76 -233 189 -284 53 -24
24 -23 621 -12 401 7 417 8 465 29 114 51 176 142 183 266 3 60 0 87 -18 132
-26 69 -86 135 -155 168 -57 28 -166 39 -215 21 -23 -8 -32 -7 -34 2 -31 108
-87 182 -172 223 -73 35 -168 42 -241 16z m189 -44 c89 -26 178 -144 178 -235
0 -24 2 -43 4 -43 2 0 25 9 51 21 92 41 216 19 288 -49 80 -75 105 -208 58
-304 -30 -63 -101 -124 -165 -143 -41 -13 -83 -14 -222 -9 -101 4 -290 2 -459
-6 l-286 -13 -66 34 c-145 74 -190 233 -107 376 61 106 201 151 323 104 l48
-18 6 57 c15 170 181 279 349 228z"/>
<path d="M697 814 c-4 -4 -7 -46 -7 -93 l0 -86 -25 38 c-27 39 -55 49 -55 20
0 -10 19 -52 43 -93 59 -103 69 -103 131 6 34 60 45 89 38 96 -17 17 -41 2
-60 -38 l-17 -37 -5 94 c-4 74 -8 94 -20 97 -9 1 -19 0 -23 -4z"/>
<path d="M1207 814 c-4 -4 -7 -48 -7 -98 l0 -91 -23 40 c-23 41 -51 56 -60 32
-3 -7 16 -50 42 -95 59 -104 70 -104 128 -2 24 41 43 83 43 93 0 29 -28 19
-54 -20 l-25 -36 -3 89 c-2 71 -6 89 -18 92 -9 1 -19 0 -23 -4z"/>
<path d="M950 453 l-1 -98 -25 43 c-26 42 -50 54 -60 29 -7 -20 86 -177 106
-177 20 0 113 157 106 177 -10 25 -34 13 -60 -29 l-25 -43 -1 98 c0 90 -1 97
-20 97 -19 0 -20 -7 -20 -97z"/>
</g>
</svg>
