<?xml version="1.0" standalone="no"?>
<!DOCTYPE svg PUBLIC "-//W3C//DTD SVG 20010904//EN"
 "http://www.w3.org/TR/2001/REC-SVG-20010904/DTD/svg10.dtd">
<svg version="1.0" xmlns="http://www.w3.org/2000/svg"
 width="200.000000pt" height="200.000000pt" viewBox="0 0 200.000000 200.000000"
 preserveAspectRatio="xMidYMid meet">

<g transform="translate(0.000000,200.000000) scale(0.100000,-0.100000)"
fill="#FFFFFF" stroke="none">
<path d="M945 1920 c-11 -4 -31 -20 -45 -35 l-25 -27 -3 -539 -3 -539 -27 -14
c-41 -22 -99 -86 -121 -136 -27 -60 -28 -169 -2 -226 48 -106 150 -174 259
-174 84 0 129 14 188 59 58 43 102 122 110 197 12 102 -45 220 -131 272 l-44
27 -1 535 c0 594 3 567 -66 596 -37 16 -59 17 -89 4z m65 -690 l0 -550 33 -13
c104 -45 138 -170 67 -251 -39 -44 -79 -60 -139 -54 -87 9 -141 70 -141 161 0
57 32 106 87 132 l42 20 1 546 c0 300 3 549 7 552 3 4 15 7 25 7 17 0 18 -23
18 -550z"/>
<path d="M927 609 c-9 -5 -24 -23 -32 -39 -40 -78 7 -159 91 -160 50 0 88 27
104 74 15 45 4 81 -32 111 -32 27 -97 34 -131 14z"/>
<path d="M1136 1735 c-36 -37 -9 -55 81 -55 59 0 75 3 80 16 13 34 -11 49 -79
52 -50 2 -70 -1 -82 -13z"/>
<path d="M1131 1536 c-9 -11 -10 -20 -1 -36 9 -17 19 -20 47 -18 43 4 63 28
44 52 -17 20 -75 21 -90 2z"/>
<path d="M1137 1343 c-4 -3 -7 -17 -7 -29 0 -29 25 -36 100 -32 56 3 79 21 67
52 -5 13 -21 16 -80 16 -41 0 -77 -3 -80 -7z"/>
<path d="M1132 1138 c-16 -16 -15 -23 4 -42 19 -20 68 -21 84 -1 6 8 9 23 5
35 -5 15 -15 20 -44 20 -20 0 -42 -5 -49 -12z"/>
<path d="M1137 943 c-4 -3 -7 -17 -7 -29 0 -29 25 -36 100 -32 56 3 79 21 67
52 -5 13 -21 16 -80 16 -41 0 -77 -3 -80 -7z"/>
<path d="M625 426 c-27 -7 -60 -18 -72 -24 -32 -18 -86 -15 -166 10 -63 19
-79 20 -134 11 -75 -13 -137 -42 -141 -66 -5 -27 25 -32 82 -13 71 22 144 20
218 -5 62 -21 119 -20 163 4 11 6 40 15 64 22 52 13 73 37 51 59 -12 11 -24
11 -65 2z"/>
<path d="M1310 417 c-14 -7 -25 -21 -25 -32 0 -18 7 -20 70 -21 52 0 80 -6
110 -22 51 -28 82 -28 155 3 74 31 121 31 187 1 44 -21 54 -23 70 -11 27 20 7
46 -58 72 -64 27 -145 29 -197 7 -75 -32 -86 -33 -143 -8 -60 26 -131 30 -169
11z"/>
<path d="M213 166 c-60 -15 -103 -40 -103 -62 0 -25 28 -28 89 -9 67 20 147
17 233 -10 l56 -18 85 27 85 27 58 -20 c69 -25 145 -27 204 -6 58 20 109 19
182 -6 65 -22 118 -20 170 7 38 20 94 17 161 -6 73 -26 88 -25 182 5 85 28
116 27 198 -8 45 -19 49 -19 65 -3 26 25 5 48 -69 74 -74 26 -164 25 -216 -2
-43 -22 -97 -20 -168 5 -66 23 -123 21 -175 -6 -38 -20 -101 -19 -148 1 -48
21 -146 21 -194 0 -50 -22 -96 -20 -171 5 -68 23 -125 21 -177 -6 -39 -20 -92
-19 -168 5 -72 23 -105 24 -179 6z"/>
</g>
</svg>
