<?xml version="1.0" standalone="no"?>
<!DOCTYPE svg PUBLIC "-//W3C//DTD SVG 20010904//EN"
 "http://www.w3.org/TR/2001/REC-SVG-20010904/DTD/svg10.dtd">
<svg version="1.0" xmlns="http://www.w3.org/2000/svg"
 width="512.000000pt" height="512.000000pt" viewBox="0 0 512.000000 512.000000"
 preserveAspectRatio="xMidYMid meet">

<g transform="translate(0.000000,512.000000) scale(0.100000,-0.100000)"
fill="#FFFFFF" stroke="none">
<path d="M2380 5114 c-154 -17 -230 -29 -330 -50 -888 -189 -1638 -866 -1925
-1739 -44 -133 -83 -299 -106 -460 -18 -115 -18 -501 -1 -610 41 -257 98 -465
183 -663 296 -692 889 -1237 1597 -1468 267 -87 472 -119 767 -118 220 0 282
6 485 46 643 126 1260 545 1638 1114 222 333 347 663 414 1089 17 109 17 495
-1 610 -79 537 -290 989 -644 1386 -408 457 -944 748 -1554 844 -93 15 -448
28 -523 19z m80 -259 c0 -57 3 -69 28 -95 17 -19 40 -33 63 -36 31 -5 42 -1
70 24 31 27 34 35 37 101 l4 71 32 -4 c17 -3 65 -8 106 -11 166 -13 413 -75
604 -151 77 -31 242 -109 255 -120 2 -1 -6 -23 -18 -47 -25 -52 -26 -68 -6
-107 19 -37 43 -50 90 -50 37 0 74 28 101 75 10 18 12 18 49 -5 110 -68 308
-241 422 -369 92 -103 223 -273 223 -290 0 -6 -13 -17 -29 -26 -40 -20 -61
-53 -61 -93 0 -44 14 -68 50 -87 39 -20 55 -19 107 6 24 12 46 20 47 18 12
-13 86 -171 122 -261 75 -186 135 -427 149 -598 3 -41 8 -89 11 -106 l4 -32
-71 -4 c-65 -3 -74 -6 -100 -36 -18 -20 -29 -43 -29 -62 0 -19 11 -42 29 -62
26 -30 35 -33 100 -36 l71 -4 -4 -32 c-3 -17 -8 -65 -11 -106 -13 -166 -75
-413 -151 -604 -31 -77 -109 -242 -120 -255 -1 -2 -23 6 -47 18 -52 25 -68 26
-107 6 -37 -19 -50 -43 -50 -90 0 -37 28 -74 75 -101 19 -11 19 -12 -9 -55
-130 -197 -418 -485 -615 -615 -43 -28 -44 -28 -55 -9 -27 47 -64 75 -101 75
-47 0 -71 -13 -90 -50 -20 -39 -19 -55 6 -107 12 -24 20 -46 18 -47 -13 -11
-178 -89 -255 -120 -191 -76 -438 -138 -604 -151 -41 -3 -89 -8 -106 -11 l-32
-4 -4 71 c-3 66 -6 74 -37 101 -28 25 -39 29 -70 24 -23 -3 -46 -17 -63 -36
-24 -26 -28 -39 -28 -94 l0 -64 -67 5 c-185 12 -445 70 -632 139 -120 45 -301
130 -301 141 0 5 9 26 20 48 24 47 25 67 5 105 -19 37 -43 50 -90 50 -36 0
-64 -21 -105 -79 -15 -21 -16 -20 -125 61 -142 105 -388 351 -493 493 -81 109
-82 110 -61 125 58 41 79 69 79 105 0 47 -13 71 -50 90 -38 20 -58 19 -105 -5
-22 -11 -43 -20 -48 -20 -11 0 -96 181 -141 301 -69 187 -127 447 -139 632
l-5 67 65 0 c61 0 67 2 99 34 46 46 46 86 0 132 -32 32 -38 34 -100 34 l-67 0
5 33 c3 17 8 66 11 107 14 171 74 412 149 598 36 90 110 248 122 261 1 2 23
-6 47 -18 52 -25 68 -26 107 -6 36 19 50 43 50 87 0 40 -21 73 -61 93 -16 9
-29 20 -29 26 0 17 131 187 223 290 114 128 312 301 422 369 37 23 39 23 49 5
27 -47 64 -75 101 -75 47 0 71 13 90 50 20 39 19 55 -6 107 -12 24 -20 46 -18
47 13 11 178 89 255 120 196 78 432 136 624 154 52 5 101 10 108 11 8 1 12
-18 12 -64z"/>
<path d="M2524 4510 c-32 -13 -64 -59 -64 -91 0 -40 46 -88 91 -95 31 -5 42
-1 70 24 28 25 34 37 34 72 0 35 -6 47 -33 71 -33 29 -60 35 -98 19z"/>
<path d="M2891 4442 c-23 -23 -31 -40 -31 -67 0 -56 37 -87 140 -114 412 -111
797 -402 1043 -788 97 -152 187 -359 227 -525 24 -96 50 -288 50 -365 0 -43 5
-58 28 -83 17 -19 40 -33 63 -36 31 -5 42 -1 70 24 l34 31 -2 110 c-9 595
-364 1207 -913 1575 -178 120 -488 251 -622 263 -53 5 -59 4 -87 -25z"/>
<path d="M2390 4049 c-560 -62 -1049 -450 -1240 -982 -116 -324 -116 -690 0
-1014 149 -415 488 -754 903 -903 375 -135 815 -111 1159 61 566 283 897 865
840 1477 -28 300 -124 547 -303 782 -315 415 -837 637 -1359 579z m272 -531
l3 -343 27 -51 c34 -64 105 -128 165 -148 57 -20 148 -21 199 -2 22 7 158 83
304 169 l265 155 17 -21 c20 -25 90 -149 86 -152 -2 -1 -126 -74 -276 -161
-151 -87 -290 -175 -309 -194 -114 -112 -114 -308 0 -420 19 -19 158 -107 309
-194 150 -87 274 -160 276 -161 4 -3 -66 -127 -86 -152 l-17 -21 -265 155
c-146 86 -282 162 -304 169 -51 19 -142 18 -199 -2 -60 -20 -131 -84 -165
-148 l-27 -51 -3 -342 -3 -343 -99 0 -99 0 -3 343 -3 342 -27 51 c-34 64 -105
128 -165 148 -57 20 -148 21 -199 2 -22 -7 -158 -83 -304 -169 l-265 -155 -17
21 c-20 25 -90 149 -86 152 2 1 126 74 276 161 151 87 290 175 309 194 114
112 114 308 0 420 -19 19 -158 107 -309 194 -150 87 -274 160 -276 161 -4 3
66 127 86 152 l17 21 265 -155 c146 -86 282 -162 304 -169 51 -19 142 -18 199
2 60 20 131 84 165 148 l27 51 3 343 3 342 99 0 99 0 3 -342z m-404 -4 l-3
-306 -28 -24 c-54 -46 -76 -38 -354 124 l-254 147 68 64 c121 114 286 212 457
271 130 46 117 77 114 -276z m714 277 c173 -58 338 -156 461 -272 l68 -64
-254 -147 c-278 -162 -300 -170 -354 -124 l-28 24 -3 306 c-2 252 0 306 11
306 7 0 52 -13 99 -29z m-1393 -1006 c136 -80 256 -154 266 -165 24 -26 24
-94 0 -120 -19 -21 -508 -310 -524 -310 -22 0 -60 234 -60 370 0 136 38 370
60 370 5 0 121 -65 258 -145z m2246 73 c46 -203 46 -393 0 -596 -9 -40 -21
-72 -26 -72 -16 0 -505 289 -524 310 -25 28 -24 96 3 122 24 24 501 307 519
307 6 1 19 -31 28 -71z m-1598 -922 l28 -24 3 -306 c2 -252 0 -306 -11 -306
-23 0 -182 57 -250 89 -96 46 -233 140 -310 212 l-68 64 253 147 c278 162 301
170 355 124z m1020 -123 l254 -148 -68 -64 c-77 -72 -214 -166 -310 -212 -68
-32 -227 -89 -250 -89 -11 0 -13 54 -11 306 l3 306 28 24 c54 46 76 38 354
-123z"/>
<path d="M2465 2843 c-211 -76 -272 -336 -115 -493 61 -61 119 -85 210 -85 91
0 149 24 210 85 61 61 85 119 85 210 0 91 -24 149 -85 210 -80 80 -203 109
-305 73z m165 -218 c35 -36 34 -95 -3 -132 -60 -61 -162 -19 -162 66 0 89 101
130 165 66z"/>
</g>
</svg>
