<?xml version="1.0" standalone="no"?>
<!DOCTYPE svg PUBLIC "-//W3C//DTD SVG 20010904//EN"
 "http://www.w3.org/TR/2001/REC-SVG-20010904/DTD/svg10.dtd">
<svg version="1.0" xmlns="http://www.w3.org/2000/svg"
 width="512.000000pt" height="512.000000pt" viewBox="0 0 512.000000 512.000000"
 preserveAspectRatio="xMidYMid meet">

<g transform="translate(0.000000,512.000000) scale(0.100000,-0.100000)"
fill="#FFFFFF" stroke="none">
<path d="M1325 4768 c-33 -18 -55 -51 -55 -84 0 -42 136 -373 166 -404 37 -38
97 -35 135 8 16 18 29 44 29 58 0 14 -32 105 -70 202 -51 127 -79 185 -101
205 -31 29 -69 34 -104 15z"/>
<path d="M2634 4763 c-39 -7 -62 -46 -139 -232 -82 -195 -85 -213 -43 -258 50
-54 131 -34 165 39 57 122 143 340 143 362 0 51 -69 99 -126 89z"/>
<path d="M1858 4080 c-149 -24 -303 -85 -429 -170 -192 -131 -342 -350 -401
-587 -34 -133 -31 -350 5 -487 43 -161 123 -307 238 -431 l39 -42 -37 -25
c-137 -91 -227 -243 -240 -405 l-6 -72 -36 -12 c-64 -20 -186 -88 -246 -137
-116 -93 -221 -253 -261 -397 -9 -33 -18 -112 -21 -175 -4 -95 -1 -131 16
-205 68 -282 278 -497 566 -577 l80 -23 1495 0 c1412 0 1499 1 1575 18 103 24
243 92 322 157 280 228 364 621 204 945 -99 199 -286 350 -501 404 l-75 19
-12 88 c-36 270 -152 498 -352 694 -199 195 -441 310 -707 337 l-74 8 -4 115
c-16 385 -232 712 -577 874 -52 24 -132 54 -179 65 -97 25 -292 35 -382 21z
m351 -220 c86 -24 195 -77 263 -126 135 -99 257 -279 297 -436 23 -90 35 -213
27 -265 l-7 -39 -72 -13 c-250 -46 -505 -194 -674 -390 -55 -64 -155 -211
-166 -244 -1 -5 -32 4 -68 21 -68 32 -117 46 -210 57 -49 5 -64 13 -118 58
-119 101 -216 254 -257 407 -25 91 -25 310 0 399 71 258 262 467 505 553 147
52 335 59 480 18z m996 -1090 c169 -46 321 -134 446 -259 176 -176 268 -380
290 -639 13 -167 20 -176 147 -192 95 -12 129 -23 214 -67 130 -68 245 -213
283 -359 19 -74 19 -213 0 -287 -51 -196 -204 -350 -410 -414 -57 -17 -132
-18 -1540 -18 -1405 0 -1483 1 -1545 18 -103 29 -178 74 -261 157 -209 207
-228 520 -47 758 77 100 195 173 335 207 110 27 118 39 118 183 0 137 15 181
89 260 65 69 144 103 239 104 101 0 171 -28 249 -100 52 -48 66 -57 99 -57 46
0 83 31 100 84 20 60 85 183 128 241 141 188 334 321 552 379 110 30 112 30
279 26 122 -2 172 -7 235 -25z"/>
<path d="M384 3849 c-56 -28 -68 -114 -21 -156 20 -20 305 -145 371 -164 71
-21 140 54 116 126 -14 43 -22 48 -225 133 -169 72 -201 80 -241 61z"/>
<path d="M3380 3770 c-110 -45 -183 -80 -197 -96 -25 -27 -31 -81 -13 -115 12
-21 60 -49 86 -49 36 0 369 141 392 166 49 55 15 149 -58 160 -27 4 -73 -11
-210 -66z"/>
<path d="M545 2619 c-93 -39 -181 -81 -195 -95 -38 -37 -35 -97 8 -135 18 -16
43 -29 57 -29 14 0 105 32 202 70 227 90 262 124 218 210 -36 69 -78 66 -290
-21z"/>
</g>
</svg>
