<?xml version="1.0" encoding="UTF-8"?>
<!DOCTYPE svg PUBLIC "-//W3C//DTD SVG 1.1//EN" "http://www.w3.org/Graphics/SVG/1.1/DTD/svg11.dtd">
<svg xmlns="http://www.w3.org/2000/svg" version="1.1" width="980px" height="980px" style="shape-rendering:geometricPrecision; text-rendering:geometricPrecision; image-rendering:optimizeQuality; fill-rule:evenodd; clip-rule:evenodd" xmlns:xlink="http://www.w3.org/1999/xlink">
<g><path style="opacity:0" fill="#fefefe" d="M -0.5,-0.5 C 326.167,-0.5 652.833,-0.5 979.5,-0.5C 979.5,326.167 979.5,652.833 979.5,979.5C 652.833,979.5 326.167,979.5 -0.5,979.5C -0.5,652.833 -0.5,326.167 -0.5,-0.5 Z"/></g>
<g><path style="opacity:1" fill="#fcf1bd" d="M 643.5,212.5 C 647.833,210.877 651.833,211.543 655.5,214.5C 651.616,213.207 647.616,212.541 643.5,212.5 Z"/></g>
<g><path style="opacity:1" fill="#f5b228" d="M 671.5,263.5 C 674.028,267.419 675.361,271.753 675.5,276.5C 675.662,278.527 675.495,280.527 675,282.5C 672.263,283.61 669.429,283.777 666.5,283C 665.267,280.686 663.933,278.519 662.5,276.5C 661.696,273.421 660.696,270.421 659.5,267.5C 658.868,263.298 657.868,259.298 656.5,255.5C 655.662,255.158 655.328,254.492 655.5,253.5C 653.708,246.694 651.708,240.028 649.5,233.5C 648.833,233.5 648.5,233.167 648.5,232.5C 647.85,230.565 647.517,228.565 647.5,226.5C 647.5,225.5 647.5,224.5 647.5,223.5C 646.5,223.5 645.5,223.5 644.5,223.5C 644.167,227.5 643.833,227.5 643.5,223.5C 636.188,224.229 635.688,222.895 642,219.5C 642.273,217.899 642.773,216.399 643.5,215C 645.833,214.333 648.167,214.333 650.5,215C 651.138,216.707 651.138,218.54 650.5,220.5C 646.423,222.116 648.257,221.782 656,219.5C 657.042,223.759 657.875,228.093 658.5,232.5C 661.82,234.96 662.82,238.126 661.5,242C 661.356,246.052 663.022,248.885 666.5,250.5C 668.065,254.687 668.732,259.02 668.5,263.5C 669.5,263.5 670.5,263.5 671.5,263.5 Z"/></g>
<g><path style="opacity:1" fill="#efb635" d="M 643.5,212.5 C 647.616,212.541 651.616,213.207 655.5,214.5C 655.373,217.245 656.54,219.245 659,220.5C 663.076,233.863 667.243,247.197 671.5,260.5C 671.5,261.5 671.5,262.5 671.5,263.5C 670.5,263.5 669.5,263.5 668.5,263.5C 668.732,259.02 668.065,254.687 666.5,250.5C 663.022,248.885 661.356,246.052 661.5,242C 662.82,238.126 661.82,234.96 658.5,232.5C 657.875,228.093 657.042,223.759 656,219.5C 648.257,221.782 646.423,222.116 650.5,220.5C 651.138,218.54 651.138,216.707 650.5,215C 648.167,214.333 645.833,214.333 643.5,215C 642.773,216.399 642.273,217.899 642,219.5C 635.688,222.895 636.188,224.229 643.5,223.5C 643.833,227.5 644.167,227.5 644.5,223.5C 645.5,223.5 646.5,223.5 647.5,223.5C 647.5,224.5 647.5,225.5 647.5,226.5C 644.581,227.913 642.081,229.913 640,232.5C 635.818,238.216 631.651,243.883 627.5,249.5C 626.395,250.6 625.062,251.267 623.5,251.5C 626.175,248.136 628.509,244.47 630.5,240.5C 631.325,239.614 632.325,239.281 633.5,239.5C 633.099,236.252 632.432,233.085 631.5,230C 628.807,230.84 626.14,232.007 623.5,233.5C 623.5,232.833 623.5,232.167 623.5,231.5C 629.753,226.334 635.086,220.334 639.5,213.5C 640.833,213.167 642.167,212.833 643.5,212.5 Z"/></g>
<g><path style="opacity:1" fill="#fef3c7" d="M 639.5,213.5 C 635.086,220.334 629.753,226.334 623.5,231.5C 627.929,224.601 633.262,218.601 639.5,213.5 Z"/></g>
<g><path style="opacity:1" fill="#fcf3cf" d="M 647.5,226.5 C 647.517,228.565 647.85,230.565 648.5,232.5C 646.415,229.573 645.082,229.906 644.5,233.5C 644.919,234.672 645.585,235.672 646.5,236.5C 644.135,240.755 643.135,240.421 643.5,235.5C 642.448,235.351 641.448,235.517 640.5,236C 637.421,239.705 634.588,243.538 632,247.5C 630.53,248.267 629.03,248.933 627.5,249.5C 631.651,243.883 635.818,238.216 640,232.5C 642.081,229.913 644.581,227.913 647.5,226.5 Z"/></g>
<g><path style="opacity:1" fill="#fbe7c0" d="M 649.5,233.5 C 651.708,240.028 653.708,246.694 655.5,253.5C 651.305,247.574 649.305,240.908 649.5,233.5 Z"/></g>
<g><path style="opacity:1" fill="#eed38b" d="M 618.5,239.5 C 616.114,242.821 613.614,246.155 611,249.5C 610.517,250.448 610.351,251.448 610.5,252.5C 609.5,252.5 608.5,252.5 607.5,252.5C 609.817,249.179 612.15,245.845 614.5,242.5C 615.642,241.174 616.976,240.174 618.5,239.5 Z"/></g>
<g><path style="opacity:1" fill="#f1b533" d="M 473.5,255.5 C 473.953,256.458 474.619,257.292 475.5,258C 481.435,259.966 486.768,262.966 491.5,267C 496.364,267.782 500.698,269.615 504.5,272.5C 506.699,274.098 509.032,275.432 511.5,276.5C 513.836,277.969 516.336,279.302 519,280.5C 519.804,291.9 515.304,294.567 505.5,288.5C 505.5,288.167 505.5,287.833 505.5,287.5C 498.562,283.451 491.228,279.951 483.5,277C 480.785,276.125 479.452,274.292 479.5,271.5C 477.167,271.5 474.833,271.5 472.5,271.5C 469.651,269.355 466.651,267.355 463.5,265.5C 462.311,264.571 460.978,264.238 459.5,264.5C 459.883,275.039 460.883,285.372 462.5,295.5C 462.966,301.491 463.299,307.491 463.5,313.5C 461.882,308.097 461.049,302.43 461,296.5C 459.956,295.377 459.29,294.044 459,292.5C 458.751,293.624 458.251,294.624 457.5,295.5C 456.446,289.35 456.446,283.184 457.5,277C 457.18,274.24 456.514,271.573 455.5,269C 455.673,266.979 456.34,265.146 457.5,263.5C 462.418,262.004 464.418,258.67 463.5,253.5C 459.952,253.095 456.619,253.595 453.5,255C 459.825,255.735 459.992,256.902 454,258.5C 451.632,257.8 449.466,256.8 447.5,255.5C 450.586,252.379 454.419,250.713 459,250.5C 463.93,251.941 468.763,253.608 473.5,255.5 Z"/></g>
<g><path style="opacity:1" fill="#fbf8e6" d="M 473.5,255.5 C 475.094,255.92 476.594,256.586 478,257.5C 479.365,256.544 480.865,255.878 482.5,255.5C 487.03,257.2 491.697,258.366 496.5,259C 495.663,260.011 495.33,261.178 495.5,262.5C 493.058,262.354 492.391,263.187 493.5,265C 496.824,265.943 500.157,266.776 503.5,267.5C 503.366,269.292 503.699,270.958 504.5,272.5C 500.698,269.615 496.364,267.782 491.5,267C 486.768,262.966 481.435,259.966 475.5,258C 474.619,257.292 473.953,256.458 473.5,255.5 Z"/></g>
<g><path style="opacity:1" fill="#f5b126" d="M 623.5,251.5 C 623.843,253.483 623.176,254.817 621.5,255.5C 617.162,260.515 613.162,265.848 609.5,271.5C 606.833,271.5 604.167,271.5 601.5,271.5C 601.277,269.658 600.943,267.825 600.5,266C 601.938,262.517 603.271,259.017 604.5,255.5C 605.5,255.5 606.5,255.5 607.5,255.5C 607.5,254.5 607.5,253.5 607.5,252.5C 608.5,252.5 609.5,252.5 610.5,252.5C 610.351,251.448 610.517,250.448 611,249.5C 613.614,246.155 616.114,242.821 618.5,239.5C 619.79,237.208 621.457,235.208 623.5,233.5C 626.14,232.007 628.807,230.84 631.5,230C 632.432,233.085 633.099,236.252 633.5,239.5C 632.325,239.281 631.325,239.614 630.5,240.5C 628.509,244.47 626.175,248.136 623.5,251.5 Z"/></g>
<g><path style="opacity:1" fill="#f9e6aa" d="M 621.5,255.5 C 618.728,261.626 614.728,266.959 609.5,271.5C 613.162,265.848 617.162,260.515 621.5,255.5 Z"/></g>
<g><path style="opacity:1" fill="#fdf8d7" d="M 671.5,260.5 C 673.193,261.475 674.693,262.808 676,264.5C 677.305,271.126 677.638,277.792 677,284.5C 671.927,288.811 667.26,288.477 663,283.5C 662.51,282.207 662.343,280.873 662.5,279.5C 665.313,285.802 669.813,287.136 676,283.5C 676.796,280.961 676.629,278.628 675.5,276.5C 675.361,271.753 674.028,267.419 671.5,263.5C 671.5,262.5 671.5,261.5 671.5,260.5 Z"/></g>
<g><path style="opacity:1" fill="#f9d78c" d="M 447.5,255.5 C 446.725,260.797 446.392,266.13 446.5,271.5C 445.837,269.527 445.504,267.361 445.5,265C 445.328,261.523 445.994,258.356 447.5,255.5 Z"/></g>
<g><path style="opacity:1" fill="#f7e4a7" d="M 656.5,255.5 C 657.868,259.298 658.868,263.298 659.5,267.5C 656.886,264.069 655.886,260.069 656.5,255.5 Z"/></g>
<g><path style="opacity:1" fill="#e7be60" d="M 604.5,255.5 C 603.271,259.017 601.938,262.517 600.5,266C 600.943,267.825 601.277,269.658 601.5,271.5C 599.492,270.384 598.492,268.551 598.5,266C 599.481,261.861 601.481,258.361 604.5,255.5 Z"/></g>
<g><path style="opacity:1" fill="#fef5d7" d="M 472.5,271.5 C 468.605,271.613 465.272,270.28 462.5,267.5C 461.337,272.802 461.171,278.136 462,283.5C 468.727,285.204 468.893,286.537 462.5,287.5C 462.5,290.167 462.5,292.833 462.5,295.5C 460.883,285.372 459.883,275.039 459.5,264.5C 460.978,264.238 462.311,264.571 463.5,265.5C 466.651,267.355 469.651,269.355 472.5,271.5 Z"/></g>
<g><path style="opacity:1" fill="#fdf8d8" d="M 511.5,276.5 C 519.489,275.989 522.655,279.656 521,287.5C 520.079,291.871 517.412,293.537 513,292.5C 511.167,292.333 509.333,292.167 507.5,292C 506.177,291.184 505.511,290.017 505.5,288.5C 515.304,294.567 519.804,291.9 519,280.5C 516.336,279.302 513.836,277.969 511.5,276.5 Z"/></g>
<g><path style="opacity:1" fill="#e9c472" d="M 662.5,276.5 C 663.933,278.519 665.267,280.686 666.5,283C 669.429,283.777 672.263,283.61 675,282.5C 675.495,280.527 675.662,278.527 675.5,276.5C 676.629,278.628 676.796,280.961 676,283.5C 669.813,287.136 665.313,285.802 662.5,279.5C 662.5,278.5 662.5,277.5 662.5,276.5 Z"/></g>
<g><path style="opacity:1" fill="#f7b026" d="M 505.5,287.5 C 504.518,283.868 502.351,281.201 499,279.5C 498.544,277.287 499.544,276.287 502,276.5C 504.319,277.709 506.819,278.542 509.5,279C 508.62,280.356 508.286,281.856 508.5,283.5C 509.5,283.5 510.5,283.5 511.5,283.5C 511.5,282.5 511.5,281.5 511.5,280.5C 517.681,281.56 518.848,284.56 515,289.5C 514.439,290.022 513.772,290.355 513,290.5C 510.323,289.778 507.823,288.778 505.5,287.5 Z"/></g>
<g><path style="opacity:1" fill="#f6b125" d="M 463.5,313.5 C 463.5,317.5 463.5,321.5 463.5,325.5C 460.629,326.679 457.796,326.679 455,325.5C 453.234,318.099 451.734,310.766 450.5,303.5C 449.5,298.167 448.5,292.833 447.5,287.5C 447.821,281.974 447.488,276.64 446.5,271.5C 446.392,266.13 446.725,260.797 447.5,255.5C 449.466,256.8 451.632,257.8 454,258.5C 459.992,256.902 459.825,255.735 453.5,255C 456.619,253.595 459.952,253.095 463.5,253.5C 464.418,258.67 462.418,262.004 457.5,263.5C 456.34,265.146 455.673,266.979 455.5,269C 456.514,271.573 457.18,274.24 457.5,277C 456.446,283.184 456.446,289.35 457.5,295.5C 458.251,294.624 458.751,293.624 459,292.5C 459.29,294.044 459.956,295.377 461,296.5C 461.049,302.43 461.882,308.097 463.5,313.5 Z"/></g>
<g><path style="opacity:1" fill="#edba54" d="M 450.5,303.5 C 451.734,310.766 453.234,318.099 455,325.5C 457.796,326.679 460.629,326.679 463.5,325.5C 460.752,328.583 457.418,329.25 453.5,327.5C 450.846,319.815 449.846,311.815 450.5,303.5 Z"/></g>
<g><path style="opacity:1" fill="#5586a2" d="M 668.5,328.5 C 663.381,326.625 658.047,325.292 652.5,324.5C 652.5,326.167 652.5,327.833 652.5,329.5C 653.5,329.5 654.5,329.5 655.5,329.5C 655.386,331.718 654.72,333.718 653.5,335.5C 651.833,334.833 650.167,334.167 648.5,333.5C 646.618,332.249 644.618,331.082 642.5,330C 636.178,328.968 629.844,328.135 623.5,327.5C 623.5,327.167 623.5,326.833 623.5,326.5C 627.524,326.497 631.524,326.164 635.5,325.5C 640.73,326.065 640.73,326.898 635.5,328C 638.986,329.043 641.986,328.376 644.5,326C 646.81,325.503 649.143,325.337 651.5,325.5C 651.64,323.876 650.973,322.71 649.5,322C 645.933,320.925 642.933,321.758 640.5,324.5C 638.365,323.119 636.032,322.119 633.5,321.5C 635.087,319.554 634.754,318.054 632.5,317C 621.494,316.62 610.494,316.12 599.5,315.5C 588.18,316.294 576.847,316.628 565.5,316.5C 575.658,313.584 586.158,312.251 597,312.5C 622.276,311.995 646.11,317.328 668.5,328.5 Z"/></g>
<g><path style="opacity:1" fill="#fbfae5" d="M 815.5,342.5 C 815.5,341.833 815.5,341.167 815.5,340.5C 818.565,337.993 819.898,334.66 819.5,330.5C 820.274,326.782 818.94,324.449 815.5,323.5C 814.064,322.571 812.731,321.405 811.5,320C 807.514,319.501 803.514,319.334 799.5,319.5C 799.577,318.25 800.244,317.417 801.5,317C 803.167,316.833 804.833,316.667 806.5,316.5C 811.587,317.219 816.587,318.219 821.5,319.5C 821.788,326.563 821.288,333.563 820,340.5C 818.89,342.037 817.39,342.703 815.5,342.5 Z"/></g>
<g><path style="opacity:1" fill="#e9c36c" d="M 767.5,323.5 C 761.681,324.328 755.681,324.828 749.5,325C 747.593,326.122 745.593,326.955 743.5,327.5C 744.122,325.665 745.456,324.498 747.5,324C 754.158,323.5 760.825,323.334 767.5,323.5 Z"/></g>
<g><path style="opacity:1" fill="#fcf5d4" d="M 447.5,287.5 C 448.5,292.833 449.5,298.167 450.5,303.5C 449.846,311.815 450.846,319.815 453.5,327.5C 452.167,327.5 450.833,327.5 449.5,327.5C 448.773,314.171 448.106,300.838 447.5,287.5 Z"/></g>
<g><path style="opacity:1" fill="#4e84ac" d="M 623.5,326.5 C 619.413,325.644 615.246,324.644 611,323.5C 602.184,324.231 593.351,324.731 584.5,325C 581.258,325.406 578.258,326.239 575.5,327.5C 569.82,327.299 564.486,328.299 559.5,330.5C 547.225,334.47 535.559,339.803 524.5,346.5C 522.565,347.15 520.565,347.483 518.5,347.5C 518.5,346.167 518.5,344.833 518.5,343.5C 515.217,344.984 511.884,346.15 508.5,347C 510.488,343.499 512.822,340.332 515.5,337.5C 530.586,327.018 547.253,320.018 565.5,316.5C 576.847,316.628 588.18,316.294 599.5,315.5C 610.494,316.12 621.494,316.62 632.5,317C 634.754,318.054 635.087,319.554 633.5,321.5C 636.032,322.119 638.365,323.119 640.5,324.5C 642.933,321.758 645.933,320.925 649.5,322C 650.973,322.71 651.64,323.876 651.5,325.5C 649.143,325.337 646.81,325.503 644.5,326C 641.986,328.376 638.986,329.043 635.5,328C 640.73,326.898 640.73,326.065 635.5,325.5C 631.524,326.164 627.524,326.497 623.5,326.5 Z"/></g>
<g><path style="opacity:1" fill="#d3b250" d="M 623.5,326.5 C 623.5,326.833 623.5,327.167 623.5,327.5C 616.336,327.197 609.169,326.864 602,326.5C 593.151,327.026 584.318,327.693 575.5,328.5C 575.5,328.167 575.5,327.833 575.5,327.5C 591.451,325.264 607.451,324.93 623.5,326.5 Z"/></g>
<g><path style="opacity:1" fill="#7b8c77" d="M 623.5,326.5 C 607.451,324.93 591.451,325.264 575.5,327.5C 578.258,326.239 581.258,325.406 584.5,325C 593.351,324.731 602.184,324.231 611,323.5C 615.246,324.644 619.413,325.644 623.5,326.5 Z"/></g>
<g><path style="opacity:1" fill="#4d84ad" d="M 668.5,328.5 C 670.179,328.285 671.179,328.952 671.5,330.5C 673.279,331.67 674.279,333.336 674.5,335.5C 677.311,335.826 679.978,336.659 682.5,338C 683.641,338.741 683.641,339.575 682.5,340.5C 680.579,341.641 678.579,341.808 676.5,341C 675.086,338.572 673.086,336.739 670.5,335.5C 669.575,336.641 668.741,336.641 668,335.5C 667.517,336.448 667.351,337.448 667.5,338.5C 666.5,338.5 665.5,338.5 664.5,338.5C 662.804,338.315 661.471,337.481 660.5,336C 658.866,335.506 657.199,335.34 655.5,335.5C 654.833,335.5 654.167,335.5 653.5,335.5C 654.72,333.718 655.386,331.718 655.5,329.5C 654.5,329.5 653.5,329.5 652.5,329.5C 652.5,327.833 652.5,326.167 652.5,324.5C 658.047,325.292 663.381,326.625 668.5,328.5 Z"/></g>
<g><path style="opacity:1" fill="#9d9a72" d="M 575.5,327.5 C 575.5,327.833 575.5,328.167 575.5,328.5C 570.167,329.167 564.833,329.833 559.5,330.5C 564.486,328.299 569.82,327.299 575.5,327.5 Z"/></g>
<g><path style="opacity:1" fill="#ecba59" d="M 815.5,323.5 C 818.94,324.449 820.274,326.782 819.5,330.5C 819.898,334.66 818.565,337.993 815.5,340.5C 815.908,337.47 816.574,334.47 817.5,331.5C 816.809,328.802 816.142,326.135 815.5,323.5 Z"/></g>
<g><path style="opacity:1" fill="#86936c" d="M 623.5,327.5 C 629.844,328.135 636.178,328.968 642.5,330C 644.618,331.082 646.618,332.249 648.5,333.5C 639.976,331.578 631.643,329.578 623.5,327.5 Z"/></g>
<g><path style="opacity:1" fill="#f7b121" d="M 623.5,327.5 C 631.643,329.578 639.976,331.578 648.5,333.5C 650.167,334.167 651.833,334.833 653.5,335.5C 654.167,335.5 654.833,335.5 655.5,335.5C 659.296,338.076 663.296,340.576 667.5,343C 668.793,343.49 670.127,343.657 671.5,343.5C 672.936,345.083 674.602,346.583 676.5,348C 680.514,349.19 684.18,351.024 687.5,353.5C 689.9,356.903 692.9,359.57 696.5,361.5C 698.28,364.29 700.613,366.29 703.5,367.5C 703.5,368.5 703.5,369.5 703.5,370.5C 705.981,370.774 707.647,372.107 708.5,374.5C 710.43,378.1 713.097,381.1 716.5,383.5C 719.671,389.145 723.004,394.478 726.5,399.5C 726.343,400.873 726.51,402.207 727,403.5C 728.722,406.867 730.889,409.867 733.5,412.5C 734.167,414.5 734.833,416.5 735.5,418.5C 735.5,419.167 735.5,419.833 735.5,420.5C 736.805,425.739 737.639,431.072 738,436.5C 739.766,438.596 741.099,440.929 742,443.5C 742.176,447.688 742.676,451.688 743.5,455.5C 743.5,455.833 743.5,456.167 743.5,456.5C 743.819,471.274 743.152,485.941 741.5,500.5C 741.483,504.534 740.483,508.201 738.5,511.5C 737.504,514.792 736.504,518.125 735.5,521.5C 733.983,521.511 732.816,522.177 732,523.5C 730.23,527.696 729.063,532.029 728.5,536.5C 725.737,542.363 722.737,548.03 719.5,553.5C 715.515,553.44 713.848,555.44 714.5,559.5C 713.5,559.5 712.5,559.5 711.5,559.5C 709.609,556.828 706.942,555.828 703.5,556.5C 700.34,554 696.673,552.667 692.5,552.5C 687.195,551.806 681.862,551.472 676.5,551.5C 672.409,550.105 668.076,549.272 663.5,549C 662.703,545.255 662.203,541.421 662,537.5C 661.617,536.944 661.117,536.611 660.5,536.5C 660.5,535.833 660.5,535.167 660.5,534.5C 660.048,530.837 659.548,527.17 659,523.5C 657.989,522.663 656.822,522.33 655.5,522.5C 653.523,518.54 651.19,514.873 648.5,511.5C 645.478,508.147 642.478,504.813 639.5,501.5C 637.856,499.519 636.19,497.519 634.5,495.5C 635.044,493.42 635.878,491.42 637,489.5C 639.485,491.804 639.985,491.137 638.5,487.5C 637.264,488.246 635.93,488.579 634.5,488.5C 634.5,489.5 634.5,490.5 634.5,491.5C 632.876,491.64 631.71,490.973 631,489.5C 628.785,490.82 627.285,490.153 626.5,487.5C 629.435,486.057 632.435,484.557 635.5,483C 628.45,482.602 621.617,481.435 615,479.5C 613.333,480.167 611.667,480.833 610,481.5C 598.349,480.209 586.849,480.209 575.5,481.5C 568.32,482.07 561.32,483.403 554.5,485.5C 554.405,483.214 553.738,481.214 552.5,479.5C 552.657,478.127 552.49,476.793 552,475.5C 550.374,474.045 549.208,472.378 548.5,470.5C 548.5,470.167 548.5,469.833 548.5,469.5C 547.492,467.456 546.492,465.456 545.5,463.5C 542.694,457.898 539.36,452.565 535.5,447.5C 533.777,443.722 532.444,439.722 531.5,435.5C 530.167,435.5 528.833,435.5 527.5,435.5C 525.273,433.393 523.273,431.06 521.5,428.5C 519.257,424.585 516.257,421.251 512.5,418.5C 511.614,417.675 511.281,416.675 511.5,415.5C 507.327,414.005 503.994,411.338 501.5,407.5C 501.833,405.5 502.167,403.5 502.5,401.5C 500.43,401.449 498.597,402.115 497,403.5C 494.736,403.146 492.902,402.146 491.5,400.5C 492.689,399.571 494.022,399.238 495.5,399.5C 495.66,397.801 495.494,396.134 495,394.5C 493.323,395.516 491.657,396.516 490,397.5C 487.024,395.044 483.524,394.044 479.5,394.5C 479.5,393.167 479.5,391.833 479.5,390.5C 483.482,390.618 485.815,388.618 486.5,384.5C 486.291,383.914 485.957,383.414 485.5,383C 487.447,379.93 489.947,377.43 493,375.5C 493.249,376.624 493.749,377.624 494.5,378.5C 496.151,373.683 498.818,369.516 502.5,366C 502.167,365.667 501.833,365.333 501.5,365C 502.381,364.292 503.047,363.458 503.5,362.5C 507.318,360.089 511.318,357.923 515.5,356C 517.141,354.871 518.141,353.371 518.5,351.5C 520.5,349.833 522.5,348.167 524.5,346.5C 535.559,339.803 547.225,334.47 559.5,330.5C 564.833,329.833 570.167,329.167 575.5,328.5C 584.318,327.693 593.151,327.026 602,326.5C 609.169,326.864 616.336,327.197 623.5,327.5 Z"/></g>
<g><path style="opacity:1" fill="#fbfaea" d="M 767.5,322.5 C 767.5,322.833 767.5,323.167 767.5,323.5C 760.825,323.334 754.158,323.5 747.5,324C 745.456,324.498 744.122,325.665 743.5,327.5C 742.833,327.5 742.5,327.833 742.5,328.5C 741.035,331.655 741.701,334.489 744.5,337C 752.391,337.796 760.058,337.296 767.5,335.5C 780.127,334.005 792.794,333.005 805.5,332.5C 805.715,334.179 805.048,335.179 803.5,335.5C 803.38,334.414 802.713,333.747 801.5,333.5C 796.513,334.581 791.513,335.581 786.5,336.5C 785.687,337.814 784.687,338.981 783.5,340C 778.5,340.333 773.5,340.667 768.5,341C 765.938,343.551 762.938,344.051 759.5,342.5C 759.667,342.167 759.833,341.833 760,341.5C 762.473,340.88 764.973,340.214 767.5,339.5C 757.761,339.132 748.261,338.132 739,336.5C 738.311,337.357 737.478,338.023 736.5,338.5C 735.534,336.604 735.201,334.604 735.5,332.5C 736.5,332.5 737.5,332.5 738.5,332.5C 739.04,329.313 738.04,326.813 735.5,325C 735.667,324.5 735.833,324 736,323.5C 736.893,324.711 737.726,324.711 738.5,323.5C 739.246,322.264 739.579,320.93 739.5,319.5C 744.406,318.954 745.406,320.454 742.5,324C 742.833,324.167 743.167,324.333 743.5,324.5C 744.834,322.583 746.667,321.583 749,321.5C 755.131,322.394 761.298,322.727 767.5,322.5 Z"/></g>
<g><path style="opacity:1" fill="#e9d27e" d="M 742.5,328.5 C 742.372,332.204 744.038,334.704 747.5,336C 754.169,336.288 760.836,336.122 767.5,335.5C 760.058,337.296 752.391,337.796 744.5,337C 741.701,334.489 741.035,331.655 742.5,328.5 Z"/></g>
<g><path style="opacity:1" fill="#789074" d="M 655.5,335.5 C 657.199,335.34 658.866,335.506 660.5,336C 661.471,337.481 662.804,338.315 664.5,338.5C 666.639,340.452 668.972,342.119 671.5,343.5C 670.127,343.657 668.793,343.49 667.5,343C 663.296,340.576 659.296,338.076 655.5,335.5 Z"/></g>
<g><path style="opacity:1" fill="#f4b32a" d="M 799.5,319.5 C 803.514,319.334 807.514,319.501 811.5,320C 812.731,321.405 814.064,322.571 815.5,323.5C 816.142,326.135 816.809,328.802 817.5,331.5C 816.574,334.47 815.908,337.47 815.5,340.5C 815.5,341.167 815.5,341.833 815.5,342.5C 812.123,348.555 808.79,354.555 805.5,360.5C 802.112,367.608 798.445,374.608 794.5,381.5C 793.833,382.167 793.167,382.833 792.5,383.5C 791.11,386.251 789.11,388.751 786.5,391C 782.833,391.67 780.833,390.17 780.5,386.5C 781.248,383.355 782.248,380.355 783.5,377.5C 785.198,370.967 788.031,364.967 792,359.5C 793.079,356.937 793.579,354.271 793.5,351.5C 794.675,351.719 795.675,351.386 796.5,350.5C 799.347,345.679 801.681,340.679 803.5,335.5C 805.048,335.179 805.715,334.179 805.5,332.5C 792.794,333.005 780.127,334.005 767.5,335.5C 760.836,336.122 754.169,336.288 747.5,336C 744.038,334.704 742.372,332.204 742.5,328.5C 742.5,327.833 742.833,327.5 743.5,327.5C 745.593,326.955 747.593,326.122 749.5,325C 755.681,324.828 761.681,324.328 767.5,323.5C 767.5,323.167 767.5,322.833 767.5,322.5C 778.022,321.505 788.689,320.505 799.5,319.5 Z"/></g>
<g><path style="opacity:1" fill="#ceac55" d="M 518.5,351.5 C 518.141,353.371 517.141,354.871 515.5,356C 511.318,357.923 507.318,360.089 503.5,362.5C 507.339,359.494 510.672,355.994 513.5,352C 515.134,351.506 516.801,351.34 518.5,351.5 Z"/></g>
<g><path style="opacity:1" fill="#7b8f75" d="M 687.5,353.5 C 691.423,355.088 694.423,357.754 696.5,361.5C 692.9,359.57 689.9,356.903 687.5,353.5 Z"/></g>
<g><path style="opacity:1" fill="#5185a7" d="M 671.5,330.5 C 695.433,341.762 714.766,358.429 729.5,380.5C 728.127,380.657 726.793,380.49 725.5,380C 723.842,377.325 722.009,374.825 720,372.5C 719.517,373.448 719.351,374.448 719.5,375.5C 716.53,375.254 715.197,373.588 715.5,370.5C 710.585,369.41 708.919,371.077 710.5,375.5C 709.833,375.167 709.167,374.833 708.5,374.5C 707.647,372.107 705.981,370.774 703.5,370.5C 703.5,369.5 703.5,368.5 703.5,367.5C 700.613,366.29 698.28,364.29 696.5,361.5C 694.423,357.754 691.423,355.088 687.5,353.5C 684.18,351.024 680.514,349.19 676.5,348C 674.602,346.583 672.936,345.083 671.5,343.5C 668.972,342.119 666.639,340.452 664.5,338.5C 665.5,338.5 666.5,338.5 667.5,338.5C 667.351,337.448 667.517,336.448 668,335.5C 668.741,336.641 669.575,336.641 670.5,335.5C 673.086,336.739 675.086,338.572 676.5,341C 678.579,341.808 680.579,341.641 682.5,340.5C 683.641,339.575 683.641,338.741 682.5,338C 679.978,336.659 677.311,335.826 674.5,335.5C 674.279,333.336 673.279,331.67 671.5,330.5 Z"/></g>
<g><path style="opacity:1" fill="#e4f3f8" d="M 439.5,377.5 C 414.268,372.818 388.935,372.318 363.5,376C 354.061,378.526 344.728,381.359 335.5,384.5C 335.281,383.325 335.614,382.325 336.5,381.5C 364.67,371.934 393.67,368.768 423.5,372C 428.379,373.737 433.379,375.07 438.5,376C 439.056,376.383 439.389,376.883 439.5,377.5 Z"/></g>
<g><path style="opacity:1" fill="#d7b04b" d="M 503.5,362.5 C 503.047,363.458 502.381,364.292 501.5,365C 501.833,365.333 502.167,365.667 502.5,366C 498.818,369.516 496.151,373.683 494.5,378.5C 493.749,377.624 493.249,376.624 493,375.5C 489.947,377.43 487.447,379.93 485.5,383C 485.957,383.414 486.291,383.914 486.5,384.5C 485.815,388.618 483.482,390.618 479.5,390.5C 482.794,384.613 486.627,378.947 491,373.5C 492.154,372.257 493.488,371.257 495,370.5C 495.483,369.552 495.649,368.552 495.5,367.5C 496.552,367.649 497.552,367.483 498.5,367C 499.411,364.585 501.078,363.085 503.5,362.5 Z"/></g>
<g><path style="opacity:1" fill="#4d83af" d="M 729.5,380.5 C 729.414,381.496 729.748,382.329 730.5,383C 728.1,383.186 725.766,383.686 723.5,384.5C 725.959,385.791 727.459,387.791 728,390.5C 728.36,388.579 729.194,386.912 730.5,385.5C 732.646,391.094 735.813,396.094 740,400.5C 740.333,403.167 740.667,405.833 741,408.5C 744.67,412.425 745.004,416.425 742,420.5C 741.506,422.134 741.34,423.801 741.5,425.5C 740.5,425.5 739.5,425.5 738.5,425.5C 738.458,421.991 739.124,418.658 740.5,415.5C 739.5,415.5 738.5,415.5 737.5,415.5C 737.715,417.179 737.048,418.179 735.5,418.5C 734.833,416.5 734.167,414.5 733.5,412.5C 731.926,407.68 729.593,403.347 726.5,399.5C 726.66,397.801 726.494,396.134 726,394.5C 723.547,390.935 721.38,387.268 719.5,383.5C 718.5,383.5 717.5,383.5 716.5,383.5C 714.909,380.569 712.909,377.902 710.5,375.5C 708.919,371.077 710.585,369.41 715.5,370.5C 715.197,373.588 716.53,375.254 719.5,375.5C 719.351,374.448 719.517,373.448 720,372.5C 722.009,374.825 723.842,377.325 725.5,380C 726.793,380.49 728.127,380.657 729.5,380.5 Z"/></g>
<g><path style="opacity:1" fill="#fcf0d4" d="M 805.5,360.5 C 805.282,365.219 804.282,369.719 802.5,374C 801.552,374.483 800.552,374.649 799.5,374.5C 799.795,377.734 799.129,380.734 797.5,383.5C 796.735,382.388 795.735,381.721 794.5,381.5C 798.445,374.608 802.112,367.608 805.5,360.5 Z"/></g>
<g><path style="opacity:1" fill="#aaa060" d="M 708.5,374.5 C 709.167,374.833 709.833,375.167 710.5,375.5C 712.909,377.902 714.909,380.569 716.5,383.5C 713.097,381.1 710.43,378.1 708.5,374.5 Z"/></g>
<g><path style="opacity:1" fill="#7f8875" d="M 716.5,383.5 C 717.5,383.5 718.5,383.5 719.5,383.5C 721.38,387.268 723.547,390.935 726,394.5C 726.494,396.134 726.66,397.801 726.5,399.5C 723.004,394.478 719.671,389.145 716.5,383.5 Z"/></g>
<g><path style="opacity:1" fill="#e4b857" d="M 783.5,377.5 C 782.248,380.355 781.248,383.355 780.5,386.5C 780.833,390.17 782.833,391.67 786.5,391C 789.11,388.751 791.11,386.251 792.5,383.5C 790.885,392.564 786.385,394.564 779,389.5C 778.505,387.527 778.338,385.527 778.5,383.5C 779.213,380.759 780.88,378.759 783.5,377.5 Z"/></g>
<g><path style="opacity:1" fill="#fef8dd" d="M 794.5,381.5 C 795.01,388.76 791.677,393.76 784.5,396.5C 783.614,397.325 783.281,398.325 783.5,399.5C 778.578,399.89 778.244,398.723 782.5,396C 777.838,392.71 776.505,388.543 778.5,383.5C 778.338,385.527 778.505,387.527 779,389.5C 786.385,394.564 790.885,392.564 792.5,383.5C 793.167,382.833 793.833,382.167 794.5,381.5 Z"/></g>
<g><path style="opacity:1" fill="#e4b33a" d="M 479.5,394.5 C 483.524,394.044 487.024,395.044 490,397.5C 491.657,396.516 493.323,395.516 495,394.5C 495.494,396.134 495.66,397.801 495.5,399.5C 494.022,399.238 492.689,399.571 491.5,400.5C 492.902,402.146 494.736,403.146 497,403.5C 498.597,402.115 500.43,401.449 502.5,401.5C 502.167,403.5 501.833,405.5 501.5,407.5C 500.833,407.5 500.167,407.5 499.5,407.5C 493.017,402.84 486.35,398.506 479.5,394.5 Z"/></g>
<g><path style="opacity:1" fill="#b4a96a" d="M 726.5,399.5 C 729.593,403.347 731.926,407.68 733.5,412.5C 730.889,409.867 728.722,406.867 727,403.5C 726.51,402.207 726.343,400.873 726.5,399.5 Z"/></g>
<g><path style="opacity:1" fill="#4f85ab" d="M 515.5,337.5 C 512.822,340.332 510.488,343.499 508.5,347C 511.884,346.15 515.217,344.984 518.5,343.5C 518.5,344.833 518.5,346.167 518.5,347.5C 520.565,347.483 522.565,347.15 524.5,346.5C 522.5,348.167 520.5,349.833 518.5,351.5C 516.801,351.34 515.134,351.506 513.5,352C 510.672,355.994 507.339,359.494 503.5,362.5C 501.078,363.085 499.411,364.585 498.5,367C 497.552,367.483 496.552,367.649 495.5,367.5C 495.649,368.552 495.483,369.552 495,370.5C 493.488,371.257 492.154,372.257 491,373.5C 486.627,378.947 482.794,384.613 479.5,390.5C 479.5,391.833 479.5,393.167 479.5,394.5C 486.35,398.506 493.017,402.84 499.5,407.5C 503.077,410.907 506.077,414.74 508.5,419C 509.833,419.333 511.167,419.667 512.5,420C 515.369,423.038 518.369,425.871 521.5,428.5C 523.273,431.06 525.273,433.393 527.5,435.5C 527.5,436.167 527.5,436.833 527.5,437.5C 527.351,438.552 527.517,439.552 528,440.5C 530.4,442.729 532.567,445.063 534.5,447.5C 534.833,447.5 535.167,447.5 535.5,447.5C 539.36,452.565 542.694,457.898 545.5,463.5C 545.025,466.313 546.025,468.313 548.5,469.5C 548.5,469.833 548.5,470.167 548.5,470.5C 548.343,471.873 548.51,473.207 549,474.5C 550.626,475.955 551.792,477.622 552.5,479.5C 552.523,481.927 553.023,484.26 554,486.5C 554.893,487.081 555.893,487.415 557,487.5C 562.862,484.713 569.029,483.046 575.5,482.5C 586.179,482.516 596.846,482.85 607.5,483.5C 612.195,485.564 617.029,487.564 622,489.5C 623.03,489.836 623.53,490.503 623.5,491.5C 625.769,492.437 627.769,493.77 629.5,495.5C 630.5,495.5 631.5,495.5 632.5,495.5C 634.193,498.19 636.527,500.19 639.5,501.5C 642.478,504.813 645.478,508.147 648.5,511.5C 648.343,512.873 648.51,514.207 649,515.5C 651.083,518.03 653.25,520.364 655.5,522.5C 656.323,526.89 657.99,530.89 660.5,534.5C 660.5,535.167 660.5,535.833 660.5,536.5C 661.373,540.768 661.706,545.102 661.5,549.5C 663.266,552.879 665.266,556.213 667.5,559.5C 669.171,557.49 669.838,555.157 669.5,552.5C 678.173,553.093 686.839,553.76 695.5,554.5C 698.006,555.75 700.673,556.416 703.5,556.5C 705.755,558.38 708.422,559.38 711.5,559.5C 712.5,559.5 713.5,559.5 714.5,559.5C 716.165,557.557 717.832,555.557 719.5,553.5C 722.737,548.03 725.737,542.363 728.5,536.5C 729.764,533.107 731.764,530.107 734.5,527.5C 735.466,525.604 735.799,523.604 735.5,521.5C 736.15,521.196 736.817,520.863 737.5,520.5C 738.484,517.572 738.817,514.572 738.5,511.5C 740.483,508.201 741.483,504.534 741.5,500.5C 742.167,498.833 742.833,497.167 743.5,495.5C 744.373,499.121 745.039,502.788 745.5,506.5C 746.5,506.5 747.5,506.5 748.5,506.5C 748.613,499.338 749.613,499.005 751.5,505.5C 752.265,504.388 753.265,503.721 754.5,503.5C 751.921,514.487 748.421,525.154 744,535.5C 738.792,546.09 732.958,556.257 726.5,566C 733.807,571.68 740.807,577.846 747.5,584.5C 774.508,614.872 782.841,649.872 772.5,689.5C 758.223,730.444 729.89,755.444 687.5,764.5C 687.5,763.5 687.5,762.5 687.5,761.5C 535.5,761.333 383.5,761.5 231.5,762C 228.325,761.947 225.658,762.78 223.5,764.5C 167.045,751.543 133.545,716.543 123,659.5C 118.217,602.89 140.384,560.723 189.5,533C 203.485,526.57 218.151,522.736 233.5,521.5C 242.431,456.936 276.431,411.269 335.5,384.5C 344.728,381.359 354.061,378.526 363.5,376C 388.935,372.318 414.268,372.818 439.5,377.5C 448.294,381.211 457.294,384.544 466.5,387.5C 466.351,386.448 466.517,385.448 467,384.5C 480.107,365.558 496.274,349.891 515.5,337.5 Z"/></g>
<g><path style="opacity:1" fill="#9ed7f2" d="M 683.5,752.5 C 531.668,751.5 379.668,751.167 227.5,751.5C 202.322,747.996 181.156,736.996 164,718.5C 128.999,675.789 125.165,630.456 152.5,582.5C 174.98,551.202 205.48,534.202 244,531.5C 249.713,477.858 274.88,436.358 319.5,407C 373.079,377.808 426.413,378.475 479.5,409C 505.445,426.282 524.945,449.116 538,477.5C 540.579,486.238 543.745,494.738 547.5,503C 548.729,503.781 550.062,504.281 551.5,504.5C 585.642,486.149 615.142,491.815 640,521.5C 647.087,533.183 650.754,545.849 651,559.5C 651.465,560.931 652.299,562.097 653.5,563C 692.177,559.768 723.343,573.268 747,603.5C 764.826,631.234 768.493,660.901 758,692.5C 743.446,725.217 718.612,745.217 683.5,752.5 Z"/></g>
<g><path style="opacity:1" fill="#a2d9ed" d="M 327.5,447.5 C 331.025,443.817 335.025,440.65 339.5,438C 347.487,433.584 355.82,429.917 364.5,427C 376.684,423.828 389.017,421.828 401.5,421C 403.745,418.104 404.078,414.937 402.5,411.5C 382.171,408.951 362.838,412.117 344.5,421C 330.619,427.721 318.285,436.555 307.5,447.5C 307.343,446.127 307.51,444.793 308,443.5C 311.36,441.64 313.86,438.973 315.5,435.5C 316.689,434.571 318.022,434.238 319.5,434.5C 319.207,430.563 319.54,426.73 320.5,423C 328.673,423.411 336.006,421.078 342.5,416C 345.482,415.502 348.482,415.335 351.5,415.5C 351.5,413.167 351.5,410.833 351.5,408.5C 352.833,408.5 354.167,408.5 355.5,408.5C 355.421,407.07 355.754,405.736 356.5,404.5C 360.511,403.773 364.511,403.107 368.5,402.5C 376.212,403.576 383.879,404.909 391.5,406.5C 400.831,403.333 407.164,406.333 410.5,415.5C 410.833,415.167 411.167,414.833 411.5,414.5C 410.833,411.833 410.167,409.167 409.5,406.5C 406.722,404.975 403.722,403.975 400.5,403.5C 399.571,402.311 399.238,400.978 399.5,399.5C 402.793,401.096 406.126,402.762 409.5,404.5C 411.568,408.208 413.568,411.874 415.5,415.5C 414.5,415.5 413.5,415.5 412.5,415.5C 412.335,418.85 412.502,422.183 413,425.5C 415.016,426.955 415.849,428.955 415.5,431.5C 414.022,431.762 412.689,431.429 411.5,430.5C 410.616,428.058 408.949,427.225 406.5,428C 407.91,428.368 408.91,429.201 409.5,430.5C 406.232,431.487 402.898,431.82 399.5,431.5C 399.5,429.5 399.5,427.5 399.5,425.5C 387.467,426.205 375.467,427.372 363.5,429C 361.997,431.774 360.497,434.607 359,437.5C 357.59,438.787 356.09,439.954 354.5,441C 350.749,439.403 346.749,438.736 342.5,439C 341.5,440.667 340.5,442.333 339.5,444C 335.186,444.57 331.186,445.737 327.5,447.5 Z"/></g>
<g><path style="opacity:1" fill="#939773" d="M 499.5,407.5 C 500.167,407.5 500.833,407.5 501.5,407.5C 503.994,411.338 507.327,414.005 511.5,415.5C 511.281,416.675 511.614,417.675 512.5,418.5C 516.257,421.251 519.257,424.585 521.5,428.5C 518.369,425.871 515.369,423.038 512.5,420C 511.167,419.667 509.833,419.333 508.5,419C 506.077,414.74 503.077,410.907 499.5,407.5 Z"/></g>
<g><path style="opacity:1" fill="#dab245" d="M 735.5,420.5 C 736.836,422.8 738.169,425.133 739.5,427.5C 741.685,435.713 743.018,444.046 743.5,452.5C 743.5,453.5 743.5,454.5 743.5,455.5C 742.676,451.688 742.176,447.688 742,443.5C 741.099,440.929 739.766,438.596 738,436.5C 737.639,431.072 736.805,425.739 735.5,420.5 Z"/></g>
<g><path style="opacity:1" fill="#baa963" d="M 527.5,435.5 C 528.833,435.5 530.167,435.5 531.5,435.5C 532.444,439.722 533.777,443.722 535.5,447.5C 535.167,447.5 534.833,447.5 534.5,447.5C 533.273,444.418 531.773,441.418 530,438.5C 529.329,437.748 528.496,437.414 527.5,437.5C 527.5,436.833 527.5,436.167 527.5,435.5 Z"/></g>
<g><path style="opacity:1" fill="#65827a" d="M 527.5,437.5 C 528.496,437.414 529.329,437.748 530,438.5C 531.773,441.418 533.273,444.418 534.5,447.5C 532.567,445.063 530.4,442.729 528,440.5C 527.517,439.552 527.351,438.552 527.5,437.5 Z"/></g>
<g><path style="opacity:1" fill="#59859f" d="M 729.5,380.5 C 744.409,401.09 753.409,424.09 756.5,449.5C 757.213,459.484 757.547,469.484 757.5,479.5C 757.561,487.109 756.561,494.442 754.5,501.5C 754.656,498.934 754.322,496.434 753.5,494C 757.148,474.841 756.982,455.674 753,436.5C 751.701,435.91 750.868,434.91 750.5,433.5C 750.085,431.091 749.418,428.758 748.5,426.5C 746.931,425.286 746.098,423.619 746,421.5C 744.991,423.025 744.491,424.692 744.5,426.5C 743.5,426.5 742.5,426.5 741.5,426.5C 741.335,429.518 741.502,432.518 742,435.5C 743.188,434.437 743.688,433.103 743.5,431.5C 744.5,431.5 745.5,431.5 746.5,431.5C 744.707,437.972 744.207,444.639 745,451.5C 746.092,448.281 747.592,445.281 749.5,442.5C 749.833,443.333 750.167,444.167 750.5,445C 749.734,446.797 749.068,448.631 748.5,450.5C 749.463,453.429 750.13,456.429 750.5,459.5C 750.167,460.833 749.833,462.167 749.5,463.5C 748.833,460.833 748.167,458.167 747.5,455.5C 746.822,460.787 746.822,466.121 747.5,471.5C 747.478,474.59 746.812,477.257 745.5,479.5C 745.666,471.493 745.5,463.493 745,455.5C 744.768,454.263 744.268,453.263 743.5,452.5C 743.018,444.046 741.685,435.713 739.5,427.5C 738.169,425.133 736.836,422.8 735.5,420.5C 735.5,419.833 735.5,419.167 735.5,418.5C 737.048,418.179 737.715,417.179 737.5,415.5C 738.5,415.5 739.5,415.5 740.5,415.5C 739.124,418.658 738.458,421.991 738.5,425.5C 739.5,425.5 740.5,425.5 741.5,425.5C 741.34,423.801 741.506,422.134 742,420.5C 745.004,416.425 744.67,412.425 741,408.5C 740.667,405.833 740.333,403.167 740,400.5C 735.813,396.094 732.646,391.094 730.5,385.5C 729.194,386.912 728.36,388.579 728,390.5C 727.459,387.791 725.959,385.791 723.5,384.5C 725.766,383.686 728.1,383.186 730.5,383C 729.748,382.329 729.414,381.496 729.5,380.5 Z"/></g>
<g><path style="opacity:1" fill="#a8c3d4" d="M 756.5,449.5 C 757.923,455.608 758.589,461.941 758.5,468.5C 758.499,472.349 758.165,476.016 757.5,479.5C 757.547,469.484 757.213,459.484 756.5,449.5 Z"/></g>
<g><path style="opacity:1" fill="#939065" d="M 545.5,463.5 C 546.492,465.456 547.492,467.456 548.5,469.5C 546.025,468.313 545.025,466.313 545.5,463.5 Z"/></g>
<g><path style="opacity:1" fill="#4d83ad" d="M 754.5,501.5 C 754.5,502.167 754.5,502.833 754.5,503.5C 753.265,503.721 752.265,504.388 751.5,505.5C 749.613,499.005 748.613,499.338 748.5,506.5C 747.5,506.5 746.5,506.5 745.5,506.5C 745.039,502.788 744.373,499.121 743.5,495.5C 745.178,490.432 745.844,485.098 745.5,479.5C 746.812,477.257 747.478,474.59 747.5,471.5C 746.822,466.121 746.822,460.787 747.5,455.5C 748.167,458.167 748.833,460.833 749.5,463.5C 749.833,462.167 750.167,460.833 750.5,459.5C 750.13,456.429 749.463,453.429 748.5,450.5C 749.068,448.631 749.734,446.797 750.5,445C 750.167,444.167 749.833,443.333 749.5,442.5C 747.592,445.281 746.092,448.281 745,451.5C 744.207,444.639 744.707,437.972 746.5,431.5C 745.5,431.5 744.5,431.5 743.5,431.5C 743.688,433.103 743.188,434.437 742,435.5C 741.502,432.518 741.335,429.518 741.5,426.5C 742.5,426.5 743.5,426.5 744.5,426.5C 744.491,424.692 744.991,423.025 746,421.5C 746.098,423.619 746.931,425.286 748.5,426.5C 749.418,428.758 750.085,431.091 750.5,433.5C 750.868,434.91 751.701,435.91 753,436.5C 756.982,455.674 757.148,474.841 753.5,494C 754.322,496.434 754.656,498.934 754.5,501.5 Z"/></g>
<g><path style="opacity:1" fill="#f9ebba" d="M 799.5,471.5 C 799.318,473.675 798.651,475.675 797.5,477.5C 798.872,481.601 801.205,484.934 804.5,487.5C 802.303,486.155 799.97,484.989 797.5,484C 794.906,480.949 794.073,477.449 795,473.5C 796.11,471.963 797.61,471.297 799.5,471.5 Z"/></g>
<g><path style="opacity:1" fill="#90986a" d="M 548.5,470.5 C 549.208,472.378 550.374,474.045 552,475.5C 552.49,476.793 552.657,478.127 552.5,479.5C 551.792,477.622 550.626,475.955 549,474.5C 548.51,473.207 548.343,471.873 548.5,470.5 Z"/></g>
<g><path style="opacity:1" fill="#f4b32b" d="M 799.5,471.5 C 801.527,471.338 803.527,471.505 805.5,472C 808.71,474.717 812.044,477.217 815.5,479.5C 820.115,484.103 825.115,488.437 830.5,492.5C 831.386,493.325 831.719,494.325 831.5,495.5C 833.621,495.325 835.621,495.659 837.5,496.5C 837.782,497.778 838.449,498.778 839.5,499.5C 841.344,502.687 844.011,504.687 847.5,505.5C 850.748,507.919 853.581,510.919 856,514.5C 857.409,520.327 856.242,525.494 852.5,530C 848.956,531.939 845.289,533.605 841.5,535C 830.195,538.16 818.862,540.993 807.5,543.5C 803.554,543.556 799.721,542.889 796,541.5C 791.523,541.823 791.356,542.823 795.5,544.5C 793.167,545.833 790.833,545.833 788.5,544.5C 787.482,542.107 788.149,540.107 790.5,538.5C 792.783,537.679 795.116,537.012 797.5,536.5C 798.713,536.253 799.38,535.586 799.5,534.5C 813.028,529.16 827.028,524.66 841.5,521C 842.337,519.989 842.67,518.822 842.5,517.5C 838.081,514.877 833.748,512.044 829.5,509C 825.755,504.065 821.089,500.565 815.5,498.5C 815.715,496.821 815.048,495.821 813.5,495.5C 812.972,494.279 812.305,493.113 811.5,492C 808.871,490.828 806.538,489.328 804.5,487.5C 801.205,484.934 798.872,481.601 797.5,477.5C 798.651,475.675 799.318,473.675 799.5,471.5 Z"/></g>
<g><path style="opacity:1" fill="#eeb231" d="M 634.5,495.5 C 633.833,495.5 633.167,495.5 632.5,495.5C 631.5,495.5 630.5,495.5 629.5,495.5C 628.888,492.303 626.888,490.969 623.5,491.5C 623.53,490.503 623.03,489.836 622,489.5C 617.029,487.564 612.195,485.564 607.5,483.5C 605.708,482.691 603.708,482.191 601.5,482C 592.84,481.5 584.173,481.334 575.5,481.5C 586.849,480.209 598.349,480.209 610,481.5C 611.667,480.833 613.333,480.167 615,479.5C 621.617,481.435 628.45,482.602 635.5,483C 632.435,484.557 629.435,486.057 626.5,487.5C 627.285,490.153 628.785,490.82 631,489.5C 631.71,490.973 632.876,491.64 634.5,491.5C 634.5,490.5 634.5,489.5 634.5,488.5C 635.93,488.579 637.264,488.246 638.5,487.5C 639.985,491.137 639.485,491.804 637,489.5C 635.878,491.42 635.044,493.42 634.5,495.5 Z"/></g>
<g><path style="opacity:1" fill="#81887c" d="M 575.5,482.5 C 575.5,482.167 575.5,481.833 575.5,481.5C 584.173,481.334 592.84,481.5 601.5,482C 603.708,482.191 605.708,482.691 607.5,483.5C 596.846,482.85 586.179,482.516 575.5,482.5 Z"/></g>
<g><path style="opacity:1" fill="#bdab5d" d="M 552.5,479.5 C 553.738,481.214 554.405,483.214 554.5,485.5C 561.32,483.403 568.32,482.07 575.5,481.5C 575.5,481.833 575.5,482.167 575.5,482.5C 569.029,483.046 562.862,484.713 557,487.5C 555.893,487.415 554.893,487.081 554,486.5C 553.023,484.26 552.523,481.927 552.5,479.5 Z"/></g>
<g><path style="opacity:1" fill="#f8fcfc" d="M 327.5,447.5 C 322.559,451.265 317.726,455.265 313,459.5C 294.527,479.801 284.193,503.801 282,531.5C 279.675,535.51 276.341,536.51 272,534.5C 269.96,521.817 271.294,509.483 276,497.5C 282.225,478.029 292.725,461.362 307.5,447.5C 318.285,436.555 330.619,427.721 344.5,421C 362.838,412.117 382.171,408.951 402.5,411.5C 404.078,414.937 403.745,418.104 401.5,421C 389.017,421.828 376.684,423.828 364.5,427C 355.82,429.917 347.487,433.584 339.5,438C 335.025,440.65 331.025,443.817 327.5,447.5 Z"/></g>
<g><path style="opacity:1" fill="#dab44d" d="M 743.5,456.5 C 744.672,469.342 744.672,482.342 743.5,495.5C 742.833,497.167 742.167,498.833 741.5,500.5C 743.152,485.941 743.819,471.274 743.5,456.5 Z"/></g>
<g><path style="opacity:1" fill="#f8e1a1" d="M 804.5,487.5 C 806.538,489.328 808.871,490.828 811.5,492C 812.305,493.113 812.972,494.279 813.5,495.5C 809.635,493.863 806.635,491.197 804.5,487.5 Z"/></g>
<g><path style="opacity:1" fill="#faf6df" d="M 815.5,479.5 C 817.924,479.192 820.257,479.526 822.5,480.5C 821.41,481.609 821.41,482.609 822.5,483.5C 828.099,481.418 831.099,483.418 831.5,489.5C 833.5,489.5 835.5,489.5 837.5,489.5C 837.5,491.833 837.5,494.167 837.5,496.5C 835.621,495.659 833.621,495.325 831.5,495.5C 831.719,494.325 831.386,493.325 830.5,492.5C 825.115,488.437 820.115,484.103 815.5,479.5 Z"/></g>
<g><path style="opacity:1" fill="#838e73" d="M 743.5,452.5 C 744.268,453.263 744.768,454.263 745,455.5C 745.5,463.493 745.666,471.493 745.5,479.5C 745.844,485.098 745.178,490.432 743.5,495.5C 744.672,482.342 744.672,469.342 743.5,456.5C 743.5,456.167 743.5,455.833 743.5,455.5C 743.5,454.5 743.5,453.5 743.5,452.5 Z"/></g>
<g><path style="opacity:1" fill="#868a6b" d="M 623.5,491.5 C 626.888,490.969 628.888,492.303 629.5,495.5C 627.769,493.77 625.769,492.437 623.5,491.5 Z"/></g>
<g><path style="opacity:1" fill="#b0a86f" d="M 632.5,495.5 C 633.167,495.5 633.833,495.5 634.5,495.5C 636.19,497.519 637.856,499.519 639.5,501.5C 636.527,500.19 634.193,498.19 632.5,495.5 Z"/></g>
<g><path style="opacity:1" fill="#f6de9e" d="M 839.5,499.5 C 841.781,501.428 844.447,502.428 847.5,502.5C 847.5,503.5 847.5,504.5 847.5,505.5C 844.011,504.687 841.344,502.687 839.5,499.5 Z"/></g>
<g><path style="opacity:1" fill="#8a8b69" d="M 648.5,511.5 C 651.19,514.873 653.523,518.54 655.5,522.5C 653.25,520.364 651.083,518.03 649,515.5C 648.51,514.207 648.343,512.873 648.5,511.5 Z"/></g>
<g><path style="opacity:1" fill="#879175" d="M 738.5,511.5 C 738.817,514.572 738.484,517.572 737.5,520.5C 736.817,520.863 736.15,521.196 735.5,521.5C 736.504,518.125 737.504,514.792 738.5,511.5 Z"/></g>
<g><path style="opacity:1" fill="#d6af4e" d="M 655.5,522.5 C 656.822,522.33 657.989,522.663 659,523.5C 659.548,527.17 660.048,530.837 660.5,534.5C 657.99,530.89 656.323,526.89 655.5,522.5 Z"/></g>
<g><path style="opacity:1" fill="#cfae45" d="M 735.5,521.5 C 735.799,523.604 735.466,525.604 734.5,527.5C 731.764,530.107 729.764,533.107 728.5,536.5C 729.063,532.029 730.23,527.696 732,523.5C 732.816,522.177 733.983,521.511 735.5,521.5 Z"/></g>
<g><path style="opacity:1" fill="#9c966b" d="M 660.5,536.5 C 661.117,536.611 661.617,536.944 662,537.5C 662.203,541.421 662.703,545.255 663.5,549C 668.076,549.272 672.409,550.105 676.5,551.5C 672.154,551.666 667.821,551.499 663.5,551C 662.956,550.283 662.289,549.783 661.5,549.5C 661.706,545.102 661.373,540.768 660.5,536.5 Z"/></g>
<g><path style="opacity:1" fill="#e8b838" d="M 799.5,534.5 C 799.38,535.586 798.713,536.253 797.5,536.5C 795.116,537.012 792.783,537.679 790.5,538.5C 788.149,540.107 787.482,542.107 788.5,544.5C 790.833,545.833 793.167,545.833 795.5,544.5C 791.356,542.823 791.523,541.823 796,541.5C 799.721,542.889 803.554,543.556 807.5,543.5C 802.207,546.25 796.54,548.25 790.5,549.5C 782.128,546.481 781.462,542.315 788.5,537C 792.133,535.951 795.799,535.118 799.5,534.5 Z"/></g>
<g><path style="opacity:1" fill="#5e8692" d="M 661.5,549.5 C 662.289,549.783 662.956,550.283 663.5,551C 667.821,551.499 672.154,551.666 676.5,551.5C 681.862,551.472 687.195,551.806 692.5,552.5C 693.5,553.167 694.5,553.833 695.5,554.5C 686.839,553.76 678.173,553.093 669.5,552.5C 669.838,555.157 669.171,557.49 667.5,559.5C 665.266,556.213 663.266,552.879 661.5,549.5 Z"/></g>
<g><path style="opacity:1" fill="#a1a362" d="M 692.5,552.5 C 696.673,552.667 700.34,554 703.5,556.5C 700.673,556.416 698.006,555.75 695.5,554.5C 694.5,553.833 693.5,553.167 692.5,552.5 Z"/></g>
<g><path style="opacity:1" fill="#c1a55f" d="M 719.5,553.5 C 717.832,555.557 716.165,557.557 714.5,559.5C 713.848,555.44 715.515,553.44 719.5,553.5 Z"/></g>
<g><path style="opacity:1" fill="#aba463" d="M 703.5,556.5 C 706.942,555.828 709.609,556.828 711.5,559.5C 708.422,559.38 705.755,558.38 703.5,556.5 Z"/></g>
<g><path style="opacity:1" fill="#e6f5f9" d="M 772.5,689.5 C 782.841,649.872 774.508,614.872 747.5,584.5C 749.648,584.611 749.981,583.944 748.5,582.5C 749.145,581.354 749.978,580.354 751,579.5C 751.376,582.01 752.21,584.343 753.5,586.5C 754.192,585.975 754.692,585.308 755,584.5C 756.49,589.531 758.99,593.864 762.5,597.5C 776.652,623.505 781.486,650.838 777,679.5C 776.538,683.417 775.038,686.75 772.5,689.5 Z"/></g>
<g><path style="opacity:1" fill="#9ad9ef" d="M 227.5,751.5 C 379.668,751.167 531.668,751.5 683.5,752.5C 532.854,753.661 382.188,753.827 231.5,753C 229.942,752.79 228.609,752.29 227.5,751.5 Z"/></g>
<g><path style="opacity:1" fill="#4d81b1" d="M 687.5,757.5 C 538.167,757.5 388.833,757.5 239.5,757.5C 234.043,757.755 228.71,757.088 223.5,755.5C 378.165,754.5 532.832,754.167 687.5,754.5C 687.5,755.5 687.5,756.5 687.5,757.5 Z"/></g>
<g><path style="opacity:1" fill="#4987a3" d="M 239.5,757.5 C 388.833,757.5 538.167,757.5 687.5,757.5C 687.5,758.5 687.5,759.5 687.5,760.5C 532.833,760.5 378.167,760.5 223.5,760.5C 223.5,759.5 223.5,758.5 223.5,757.5C 228.991,758.559 234.325,758.559 239.5,757.5 Z"/></g>
<g><path style="opacity:1" fill="#5784af" d="M 687.5,764.5 C 685.031,765.317 682.365,765.817 679.5,766C 530.167,766.667 380.833,766.667 231.5,766C 228.635,765.817 225.969,765.317 223.5,764.5C 225.658,762.78 228.325,761.947 231.5,762C 383.5,761.5 535.5,761.333 687.5,761.5C 687.5,762.5 687.5,763.5 687.5,764.5 Z"/></g>
</svg>
