<svg version="1.1" id="Layer_1" xmlns="http://www.w3.org/2000/svg" xmlns:xlink="http://www.w3.org/1999/xlink" x="0px" y="0px"
	 width="100%" viewBox="0 0 352 352" enable-background="new 0 0 352 352" xml:space="preserve">
<path fill="#FFFFFF" opacity="1.000000" stroke="none" 
	d="
M131.000000,195.927917 
	C112.175201,195.913025 93.850349,195.915771 75.525658,195.862854 
	C73.372177,195.856628 71.189461,195.710587 69.074768,195.328156 
	C66.816444,194.919754 65.767014,193.288818 65.730431,191.002945 
	C65.693306,188.683884 66.748177,187.064102 69.034790,186.700623 
	C71.653442,186.284348 74.324921,186.004715 76.973709,186.002701 
	C124.451874,185.966492 171.930084,185.977707 219.408279,185.988098 
	C230.800003,185.990585 241.272980,188.324463 246.736542,199.673309 
	C252.496658,211.638153 252.038055,223.591431 244.305710,234.710236 
	C238.347351,243.278076 228.430923,246.974670 218.963760,244.609314 
	C208.949829,242.107346 200.360840,232.813934 199.072144,223.060333 
	C198.729706,220.468567 199.476349,218.321075 202.177551,217.573044 
	C205.242126,216.724396 207.386475,217.957916 208.262756,221.075134 
	C209.757126,226.391113 212.348480,231.005630 217.307251,233.728378 
	C227.428604,239.285782 239.466324,231.494522 240.642807,218.768692 
	C242.030212,203.761642 234.248001,195.179413 218.951355,195.633148 
	C189.823624,196.497162 160.652878,195.912216 131.000000,195.927917 
z"/>
<path fill="#FFFFFF" opacity="1.000000" stroke="none" 
	d="
M76.999908,177.068573 
	C69.000137,177.052475 61.500168,177.065186 54.000721,177.008484 
	C50.488007,176.981934 46.180935,177.299286 45.964207,172.474106 
	C45.730167,167.263580 50.307652,167.208817 53.921185,167.183533 
	C62.078331,167.126480 70.238319,167.567062 78.396469,167.545914 
	C111.705757,167.459564 145.014786,167.272400 178.323944,167.130081 
	C186.645020,167.094528 194.966888,167.146683 203.287201,167.052658 
	C213.317734,166.939316 219.541245,161.533890 220.688477,152.092026 
	C222.152344,140.044022 217.094833,130.348297 207.997757,127.762695 
	C201.885544,126.025459 194.671082,129.594116 191.028015,136.289505 
	C190.079865,138.032089 189.422913,139.943604 188.737000,141.815918 
	C187.694839,144.660553 185.843170,146.474808 182.721909,145.704132 
	C179.480484,144.903793 178.832443,142.368469 179.588593,139.399338 
	C182.195709,129.162079 187.924637,121.642876 198.434601,118.702255 
	C208.744598,115.817566 217.208633,119.431808 223.851593,127.254692 
	C233.256073,138.329620 232.944016,157.438690 223.561630,168.498077 
	C217.606293,175.517899 209.542969,177.003143 200.995804,177.013901 
	C159.830551,177.065781 118.665222,177.056503 76.999908,177.068573 
z"/>
<path fill="#FFFFFF" opacity="1.000000" stroke="none" 
	d="
M121.999481,203.071686 
	C135.827896,203.052872 149.156555,202.978760 162.484741,203.028198 
	C165.467621,203.039261 168.510757,203.183044 171.419800,203.782166 
	C181.859848,205.932220 185.690292,214.702591 184.906357,224.167694 
	C184.003098,235.073471 176.077118,241.983734 166.534012,241.283508 
	C159.414032,240.761093 152.354813,234.107437 151.653641,227.261185 
	C151.376678,224.556839 151.721390,222.190155 154.908875,221.441315 
	C157.884415,220.742264 159.483978,222.082977 160.621170,224.827194 
	C162.942520,230.428894 166.025192,232.502625 169.682770,231.369797 
	C173.037094,230.330902 175.956650,225.267365 175.535690,221.218811 
	C174.973343,215.810364 172.254623,213.064087 166.725906,213.043472 
	C139.235687,212.940979 111.744995,212.970612 84.254555,212.913086 
	C82.104469,212.908585 79.915192,212.790192 77.816093,212.367447 
	C75.551308,211.911331 74.612968,210.188629 74.680161,207.903046 
	C74.747139,205.624634 75.766571,204.051010 78.054840,203.598480 
	C79.515129,203.309708 81.025826,203.157333 82.514824,203.150848 
	C95.509613,203.094345 108.504608,203.084610 121.999481,203.071686 
z"/>
<path fill="#FFFFFF" opacity="1.000000" stroke="none" 
	d="
M275.999847,179.406189 
	C265.010071,179.390961 254.520187,179.341049 244.030640,179.380234 
	C240.662094,179.392807 237.794891,178.643845 237.837677,174.661652 
	C237.880249,170.699646 240.918198,169.911331 244.153412,169.903900 
	C261.802612,169.863327 279.452026,169.899414 297.101166,169.845474 
	C304.665375,169.822342 308.011230,165.763077 306.626465,158.350525 
	C305.966370,154.817001 304.091278,152.097382 300.351501,151.434372 
	C296.583496,150.766342 294.505310,153.115021 293.071106,156.217102 
	C292.722504,156.971161 292.450806,157.760391 292.125366,158.525620 
	C290.892548,161.424561 288.414917,161.912613 285.886963,161.094681 
	C283.028809,160.169907 282.543518,157.822479 283.243927,154.998367 
	C285.387512,146.355011 292.452209,141.061386 301.200653,141.684113 
	C308.853821,142.228851 315.413055,148.997864 316.284180,157.249924 
	C317.878448,172.352371 309.161041,180.449097 296.473389,179.476425 
	C289.852661,178.968872 283.160034,179.399292 275.999847,179.406189 
z"/>
</svg>
